<svg xmlns="http://www.w3.org/2000/svg" viewBox="0 0 24 24" width="100%" height="100%"><path d="M21 4c.5 0 1 .5 1 1v15h-1V5H3v15H2V5c0-.5.5-1 1-1zm-1 2v1H4V6zM8.22 9.87c.31-.06 1.93-.26 3.78-.26s3.47.2 3.78.26c.54.12 1.04 1.6 1.13 1.8.03.07.1.24.2.4q.07-.13.24-.17c.15-.05.8.1.95.16s.14.1.15.17-.06.24-.09.28a.4.4 0 0 1-.18.14c-.16.08-.34.06-.34.06.24.06.51.14.65.22.36.2.79.78.88 1.22.09.45.13 3.64.13 3.78s-.04 1.13-.1 1.62c-.08.45-.64.45-.64.45h-1.41c-.47 0-.5-.45-.5-.45s-.05-.37-.1-.56q-.03-.12-.17-.16c-.58-.2-1.57-.21-1.57-.21H9s-1 0-1.57.21q-.14.04-.17.16c-.05.2-.1.56-.1.56s-.03.45-.5.45H5.24s-.56 0-.63-.45c-.07-.49-.11-1.5-.11-1.63s.04-3.32.13-3.77c.1-.44.52-1.01.88-1.22.14-.08.41-.16.65-.22 0 0-.18.02-.34-.06q-.16-.08-.18-.14c-.02-.06-.1-.2-.09-.28 0-.07 0-.12.15-.17s.8-.2.95-.16q.17.04.25.17l.2-.4c.08-.2.58-1.68 1.12-1.8M12 13.31c-4.8 0-6.23.2-6.53.27q-.08.01-.08.1V14q0 .07.12.06s3.3-.1 6.49-.09c3.2-.01 6.5.1 6.5.1q.1 0 .1-.07l.01-.3q0-.1-.08-.11c-.3-.06-1.74-.28-6.53-.27m-4.04-2.34s.06.78.11 1.2c.01.07.03.24.33.25l3.6-.04 3.6.04c.3 0 .32-.18.33-.26.05-.41.11-1.2.11-1.2q.01-.19-.29-.28c-.65-.18-2.2-.27-3.75-.26-1.54 0-3.1.08-3.75.26q-.28.1-.3.29"/></svg>