<svg xmlns="http://www.w3.org/2000/svg" viewBox="0 0 24 24" width="100%" height="100%"><path d="M12 5.5a2 2 0 1 1 0 4 2 2 0 0 1 0-4M12 3c2.48 0 4.5 2.24 4.5 5 0 2.54-2.79 6.42-4.5 8.48-1.71-2.06-4.5-5.94-4.5-8.48 0-2.76 2.02-5 4.5-5m0-1C8.9 2 6.5 4.73 6.5 8c0 4 5.5 10 5.5 10s5.5-6 5.5-10c0-3.27-2.4-6-5.5-6m4.28 12.5-.6.92c3.3.55 5.32 1.76 5.32 2.64 0 1.16-3.59 2.93-9 2.93s-9-1.77-9-2.93c0-.88 2.02-2.09 5.32-2.64l-.6-.92C4.34 15.13 2 16.49 2 18.06 2 20.24 6.48 22 12 22s10-1.76 10-3.94c0-1.57-2.34-2.93-5.72-3.56m-1.28 2-.68.92c1.46.17 2.47.47 2.95.72-.7.37-2.53.86-5.27.86s-4.56-.49-5.27-.86c.48-.25 1.5-.55 2.95-.72L9 16.5c-2.07.31-3.5.93-3.5 1.64C5.5 19.17 8.41 20 12 20s6.5-.83 6.5-1.86c0-.71-1.43-1.33-3.5-1.64"/></svg>