<svg xmlns="http://www.w3.org/2000/svg" viewBox="0 0 24 24" width="100%" height="100%"><path fill-rule="evenodd" d="M14.65 10.49c.24-.91.37-1.78.37-2.52 0-2.92-.81-3.53-1.51-3.53a2 2 0 0 0-1.28.34q-.19.12-.24.34l-.5 2.72c-.47 1.27-1.6 2.39-2.62 3.21a1 1 0 0 0-.91-.56H4.94a1 1 0 0 0-1.01 1.01v7.06a1 1 0 0 0 1.01 1.01h3.02a1 1 0 0 0 1-.92q.38.13.78.35c.54.27 1.11.54 1.75.54h4.81c1.01 0 1.75-.81 1.75-1.51q0-.2-.03-.37c.64-.24 1.04-.77 1.04-1.38q-.01-.46-.17-.77c.37-.27.77-.71.77-1.24 0-.27-.13-.61-.34-.84.44-.34.74-.81.74-1.28 0-1.08-.84-1.65-2.02-1.65zM12.47 8.1s0-.07.03-.07l.47-2.52c.17-.07.3-.07.57-.07.1 0 .5.61.5 2.52q0 1.11-.4 2.52h-.13c-.27 0-.5.24-.5.5s.24.5.5.5h4.54c.5 0 .97.24.97.64s-.26.57-.48.72q-.21.12-.29.29c-.05.16.04.27.14.41.12.16.26.35.26.67 0 .39-.29.54-.54.67q-.25.1-.33.27c-.07.19 0 .32.07.47s.16.34.16.64v.1c-.06.32-.4.45-.67.56-.15.06-.29.11-.33.18-.08.13-.06.23-.02.39q.04.17.06.52c0 .3-.34.5-.74.5H11.5c-.37 0-.84-.2-1.28-.44-.4-.2-.81-.4-1.24-.5v-5.34c1.24-.94 2.86-2.39 3.49-4.13m-4.5 10.45v-7.06H4.95v7.06z"/></svg>