<svg xmlns="http://www.w3.org/2000/svg" viewBox="0 0 24 24" width="100%" height="100%"><path d="M10.69 11.63H9.33L10 9.72zM22 10.91c0 4.36-4.48 7.9-10 7.9q-.93 0-1.86-.14L6.3 21.29c-.22.15-.53.05-.42-.39l.86-3.27C3.9 16.24 2 13.75 2 10.91 2 6.54 6.48 3 12 3s10 3.55 10 7.91M7.1 9.57H8a.5.5 0 0 0 0-1H5a.5.5 0 0 0 0 1h1v3.5q0 .2.15.35t.34.14h.12c.27 0 .48-.22.47-.49zm5.03 3.36-1.46-4a.7.7 0 0 0-.68-.42.7.7 0 0 0-.71.5v.06l-1.44 3.85a.5.5 0 0 0 .02.37.49.49 0 0 0 .89-.05l.25-.71h2l.25.71c.1.26.37.38.62.29.23-.1.35-.36.26-.6m3.33.18c0-.25-.2-.45-.46-.46h-1.38V8.93a.54.54 0 1 0-1.07.15v4c0 .25.2.45.45.45h2c.24 0 .44-.18.46-.42m3.89-.31-1.52-2 1.37-1.42a.5.5 0 0 0 0-.7.47.47 0 0 0-.67.03l-1.69 1.69V9a.54.54 0 0 0-1.08 0v4a.54.54 0 0 0 1.08 0v-1.2l.3-.31 1.44 1.88a.48.48 0 0 0 .77-.57"/></svg>