<svg xmlns="http://www.w3.org/2000/svg" viewBox="0 0 24 24" width="100%" height="100%"><path d="M16.54 3H7.61a1.54 1.54 0 0 0-1.6 1.62v15.26a1 1 0 0 0 .55 1.05 1 1 0 0 0 1.08-.25s4.21-5.25 4.3-5.33.1-.12.21-.12h2.73c1.14 0 1.33-.88 1.45-1.4s1.21-6.58 1.6-8.54C18.2 3.8 17.84 3 16.53 3m-.2 10.83c.08-.43 1.2-6.58 1.58-8.54zM16 5.6l-.38 2.1a.6.6 0 0 1-.55.46H11.6a.66.66 0 0 0-.67.71v.46a.67.67 0 0 0 .67.72h2.95s.55.32.5.64l-.38 2.06a.6.6 0 0 1-.55.48h-2.4a.85.85 0 0 0-.88.45c-.29.4-2.93 3.8-2.93 3.8h-.05V5.56c.01-.3.24-.54.54-.56h7.17a.5.5 0 0 1 .44.6"/></svg>