<svg xmlns="http://www.w3.org/2000/svg" viewBox="0 0 24 24" width="100%" height="100%"><path d="M20.94 16.24a1.3 1.3 0 0 0-.64-.68l-.14-.07-.24-.12a5.4 5.4 0 0 1-1.97-1.69c-.14-.2-.37-.76-.34-.83s.81-.57.92-.65q.52-.36.74-.79a1.54 1.54 0 0 0-1.42-2.29 3 3 0 0 0-.54.08c0-.41 0-1.12-.04-1.55a4.7 4.7 0 0 0-1.22-2.94A6 6 0 0 0 12 3c-1.78 0-3.25.8-4.05 1.71a4.7 4.7 0 0 0-1.21 2.94A19 19 0 0 0 6.7 9.2l-.55-.07a1.55 1.55 0 0 0-1.42 2.28q.23.44.74.8c.1.06.89.6.92.64.04.07-.21.64-.34.84a5.4 5.4 0 0 1-1.91 1.65c-.43.23-.89.38-1.08.9-.14.4-.05.84.32 1.21.16.16 1.74.85 1.81.9.15.1.5.8.63.89.37.25.78.27 1.23.29.4.01 1.8.4 2.06.57.62.38 1.47.9 2.89.9s2.27-.52 2.9-.9a8 8 0 0 1 2.05-.57c.44-.02.86-.03 1.23-.3.17-.1.5-.77.63-.88.07-.06.94-.33 1.35-.55q.27-.15.48-.38c.35-.37.44-.8.3-1.18m-1.27.68c-.77.42-1.28.38-1.67.63-.34.22-.14.69-.39.86-.3.2-1.2-.02-2.34.36C14.32 19.1 13.7 20 12 20s-2.3-.9-3.27-1.22c-1.15-.38-2.04-.16-2.34-.37-.25-.16-.05-.63-.38-.85-.4-.26-.91-.21-1.68-.63-.5-.27-.22-.44-.05-.52 2.79-1.35 3.23-3.43 3.25-3.59.02-.19.05-.33-.16-.52-.2-.19-1.08-.73-1.32-.9-.4-.29-.59-.57-.46-.92.1-.24.32-.33.56-.33.1 0 1.4.42 1.44.42q.19 0 .17-.22c-.03-.49-.1-1.71-.02-2.6C7.89 6.02 9 4.01 12 4.01c2.41 0 4.05 1.3 4.26 3.73.08.88.01 2.1-.02 2.6q-.01.22.17.21c.05 0 1.37-.42 1.44-.42.24 0 .46.1.56.34q.17.5-.46.91c-.24.17-1.13.72-1.32.9-.21.2-.18.34-.16.53.02.15.46 2.24 3.25 3.58.17.09.44.25-.05.53"/></svg>