<svg xmlns="http://www.w3.org/2000/svg" viewBox="0 0 24 24" width="100%" height="100%"><path d="M9.2 14.38V10.8c0-.23-.08-.28-.29-.28H7.27c-.2 0-.28 0-.27-.28V8.41c0-.16.1-.31.26-.35A6 6 0 0 0 9.68 5.9a5 5 0 0 0 .81-2.62c0-.23.08-.28.28-.28h1.67c.21 0 .27.07.27.29v4.09c0 .25.06.32.3.32h3.78c.25 0 .3.08.3.32v2.26c0 .22-.07.26-.25.26h-3.83c-.23 0-.3 0-.3.31v5.2q-.01.3.04.6c.1.93.87 1.64 1.81 1.65q1.38-.03 2.63-.63.31-.13.31.21v2.26c0 .13 0 .22-.15.26-1.67.53-3.43.72-5.17.54a4 4 0 0 1-1.73-.63 2.8 2.8 0 0 1-1.26-2.42z"/></svg>