<svg xmlns="http://www.w3.org/2000/svg" viewBox="0 0 24 24" width="100%" height="100%"><path d="M3 14.86a4 4 0 0 0 2.3 3.5c1.6.9 3.41 1.35 5.25 1.31 2.06.07 4.09-.5 5.8-1.64q2.35-1.65 2.35-3.48a2 2 0 0 0-.64-1.57 4 4 0 0 0-1.55-.9q-.4-.12-.27-.45c.3-.56.3-1.23 0-1.79-.38-.46-.96-.7-1.55-.64a6 6 0 0 0-2.45.6q-.46.19-.46-.09v-.1a2.1 2.1 0 0 0-.18-2.15q-.72-.73-2.46-.05-1.97.85-3.45 2.38-2.7 2.7-2.69 5.07m1.84.71a3 3 0 0 1 1.32-2.67 7 7 0 0 1 3.71-1.42c1.34-.17 2.7.06 3.91.66a3 3 0 0 1 1.82 2.36 3 3 0 0 1-1.34 2.67 6.7 6.7 0 0 1-3.71 1.42 7 7 0 0 1-3.89-.67 3 3 0 0 1-1.82-2.35m2.35.91c.26.63.8 1.1 1.45 1.26a3.1 3.1 0 0 0 3.82-1.64 2.1 2.1 0 0 0 0-1.92A2.3 2.3 0 0 0 10.89 13a3.2 3.2 0 0 0-2.11.18c-.67.27-1.22.77-1.53 1.42-.29.6-.29 1.3 0 1.9zm.81-.27a.8.8 0 0 1 .11-.69q.22-.34.59-.48a1 1 0 0 1 .75 0q.36.14.46.5.08.38-.14.7t-.61.47q-.37.15-.73 0a.7.7 0 0 1-.43-.5m2.09-1.44a.36.36 0 0 1 .5-.18q.32.14.14.46a.36.36 0 0 1-.5.18c-.23-.09-.23-.25-.13-.46zm4.63-8.82q.06.25.28.4.22.17.5.12a3.2 3.2 0 0 1 3.23 1c.86.88 1.15 2.18.73 3.34a.7.7 0 0 0 0 .5q.11.27.39.34.28.09.55 0a.5.5 0 0 0 .32-.39 4.75 4.75 0 0 0-3.1-6.04 5 5 0 0 0-2.43-.13 1 1 0 0 0-.43.32.6.6 0 0 0-.09.5zm.59 2.31q.11.57.7.43a1 1 0 0 1 1.07.37c.28.3.37.71.25 1.1a.55.55 0 0 0 .37.77q.54.19.72-.4A2.2 2.2 0 0 0 18 8.26a2.2 2.2 0 0 0-2.21-.7.53.53 0 0 0-.43.7z"/></svg>