<svg xmlns="http://www.w3.org/2000/svg" viewBox="0 0 24 24" width="100%" height="100%"><path d="M19.6 6h-8.48q-.27 0-.37.28c-.1.32.08.61.39.61h8.09v9.82h-2.71q-.43 0-.43.49v1.44l-.08-.12-1.05-1.57q-.16-.25-.42-.24H6.97l-.11-.01v-4.9c-.03-.25-.23-.42-.44-.38s-.32.22-.32.5v5.14q0 .54.45.53h7.76q.12 0 .2.11l1.66 2.49q.19.27.45.17.25-.1.25-.45v-2.33h2.74q.4-.01.41-.47V6.47q-.01-.46-.4-.47zM6.35 9.19c.24.07.45-.12.45-.43V6.82h1.69c.23 0 .38-.17.38-.42s-.15-.41-.38-.41H6.81V4.06q-.01-.36-.28-.44c-.24-.06-.45.13-.45.44v1.95h-1.7a.4.4 0 0 0-.24.09c-.13.1-.16.29-.11.46s.18.27.35.27h1.7v1.92q0 .37.27.45z"/></svg>