<svg xmlns="http://www.w3.org/2000/svg" viewBox="0 0 24 24" width="100%" height="100%"><path d="M21 10.27V17l-4 3s-7-7.26-7.07-7.36c-.51-.66-.32-1.55.26-2.13.87-.87 2.08-.35 2.39 0l1.67 1.68 1.41-1.42L9.3 4.41l-4.89 4.7 7.13 7.18-.71.71L3 9.11 9.3 3l7.78 7.77-2.83 2.83-2.38-2.38a.7.7 0 0 0-.97 0 .67.67 0 0 0 0 .97l6.23 6.49L20 16.5v-6.12a2.3 2.3 0 0 0-.55-1.29q-.8-.7-1.72-1.22c-.8-.53-1.76-.8-2.73-.78l-1.12-.91Q14.42 6.02 15 6c1.15.02 2.28.36 3.24 1q1.01.58 1.89 1.35c.5.52.82 1.2.87 1.92"/></svg>