<svg xmlns="http://www.w3.org/2000/svg" viewBox="0 0 24 24" width="100%" height="100%"><path d="M5.52 11.18H1.5v1h4.02zm.38 3.45L2.66 16.5l.5.87 3.1-1.8s-.3-.7-.36-.94m.35-6.84L3.16 6l-.5.87L5.9 8.74c.11-.4.35-.95.35-.95m.93.4s-.68 1.2-.68 3.5c0 1.96.68 3.5.68 3.5s4.32-.49 4.32-3.5c0-3.03-4.32-3.5-4.32-3.5M7.84 14a7 7 0 0 1-.34-2.32c0-1.16.2-1.74.34-2.18 1.2.2 2.66 1 2.66 2.18C10.5 13 9.04 13.8 7.84 14m10.64-2.82v1h4.02v-1zm-.74 4.4 3.1 1.79.5-.87-3.24-1.87a9 9 0 0 1-.36.95m.36-6.84 3.24-1.87-.5-.87-3.1 1.8s.24.52.36.94m-1.27-.56s-4.33.48-4.33 3.5 4.33 3.5 4.33 3.5.67-1.21.67-3.5a10 10 0 0 0-.67-3.5M16.16 14c-1.2-.2-2.66-1-2.66-2.32 0-1.18 1.46-1.98 2.66-2.18.14.44.34 1 .34 2.18 0 1.17-.2 1.88-.34 2.32"/></svg>