<svg xmlns="http://www.w3.org/2000/svg" viewBox="0 0 24 24" width="100%" height="100%"><path d="M22 12.41h-2.13l1.06 1.85-.86.5-1.36-2.35h-5.84l2.92 5.06h2.71v1h-2.13l1.06 1.85-.86.5-1.07-1.85-1.07 1.85-.86-.5 1.35-2.35L12 12.91l-2.92 5.06 1.35 2.35-.86.5-1.07-1.85-1.07 1.85-.86-.5 1.06-1.85H5.5v-1h2.71l2.92-5.06H5.3l-1.36 2.35-.86-.5 1.07-1.85H2v-1h2.13L3.07 9.56l.86-.5 1.36 2.35h5.84L8.21 6.35H5.5v-1h2.13L6.57 3.5l.86-.5L8.5 4.85 9.57 3l.86.5-1.35 2.35L12 10.9l2.92-5.06-1.35-2.35.86-.5 1.07 1.85L16.57 3l.86.5-1.06 1.85h2.13v1h-2.71l-2.92 5.06h5.84l1.36-2.35.86.5-1.06 1.85H22z"/></svg>