<svg xmlns="http://www.w3.org/2000/svg" viewBox="0 0 24 24" width="100%" height="100%"><path d="M19.1 8.6c-.2-.4-.6-.6-1.1-.6h-2a2 2 0 0 0-2-2H5a2 2 0 0 0-2 2v1H2c-.3 0-.5.2-.5.5s.2.5.5.5h1v5c0 1.1.9 2 2 2h1.1c.2.6.8 1 1.4 1s1.2-.4 1.4-1h8.2c.2.6.8 1 1.4 1s1.2-.4 1.4-1h.9c.6 0 1.2-.5 1.2-1v-2.8c0-.1 0-.2-.1-.4zM15 16H8.9c-.2-.6-.8-1-1.4-1s-1.2.4-1.4 1H5c-.6 0-1-.4-1-1v-5h4c.3 0 .5-.2.5-.5S8.3 9 8 9H4V8c0-.6.4-1 1-1h9c.6 0 1 .4 1 1zm4.9 0c-.2-.6-.8-1-1.4-1s-1.2.4-1.4 1H16V9h2c.1 0 .2 0 .2.1v.2l2.8 4.1V16zM11 11.5c0 .3-.2.5-.5.5H7c-.3 0-.5-.2-.5-.5s.2-.5.5-.5h3.5c.3 0 .5.2.5.5"/></svg>