<svg xmlns="http://www.w3.org/2000/svg" viewBox="0 0 24 24" width="100%" height="100%"><path d="M6.98 13.71c0 1.42-.74 2.24-2.48 2.24S2.07 15.23 2 13.5h1.17c.06 1.08.46 1.46 1.33 1.46s1.29-.35 1.29-1.2-.29-1.24-1.29-1.24h-.69v-1.11h.63c.83 0 1.19-.27 1.19-1.1s-.38-1.16-1.2-1.16-1.17.32-1.23 1.4H2C2.06 9 2.83 8 4.5 8s2.34.86 2.39 2.24a1.7 1.7 0 0 1-1 1.62c.75.3 1.2 1.06 1.09 1.85m3.67-2.93q-.34 0-.65.13L11.8 8h-1.36l-1.7 2.8a4.4 4.4 0 0 0-.75 2.55c0 1.9.87 2.6 2.51 2.6s2.52-.7 2.52-2.6-.83-2.57-2.37-2.57m-.15 4.18c-1 0-1.28-.41-1.28-1.54s.32-1.5 1.28-1.5 1.27.41 1.27 1.5-.27 1.54-1.27 1.54m6-6.96c-2 0-2.53 1.08-2.53 3.98 0 3.1.63 4.02 2.51 4.02S19 14.96 19 11.98C19 9.06 18.5 8 16.5 8m0 6.96c-1.06 0-1.24-.54-1.24-2.98 0-2.27.25-2.78 1.24-2.78s1.25.5 1.25 2.78c-.02 2.41-.2 2.98-1.25 2.98m5.33-6.52a1 1 0 0 0-1.39-.27c-.45.3-.58.92-.27 1.38s.93.57 1.39.27.58-.92.27-1.38m-.5.91a.47.47 0 0 1-.66-.03.46.46 0 0 1 0-.63.47.47 0 0 1 .7 0c.17.2.15.49-.04.66"/></svg>