<svg xmlns="http://www.w3.org/2000/svg" viewBox="0 0 24 24" width="100%" height="100%"><path d="M7 2.5v1h4.07l.14-.25a1.5 1.5 0 0 1 2.58 0l.14.25H18v-1c0-.28.22-.5.5-.5h1c.28 0 .5.22.5.5v3a.5.5 0 0 1-.5.5h-1a.5.5 0 0 1-.5-.5v-1h-4.07l-.14.25q-.2.33-.54.54l-.25.14v11.1l.3.14a2 2 0 0 1 1.03 1.03l.13.3H19v-1.5c0-.28.22-.5.5-.5h1c.28 0 .5.22.5.5v4a.5.5 0 0 1-.5.5h-1a.5.5 0 0 1-.5-.5V19h-4.54l-.13.3a2 2 0 0 1-3.66 0l-.13-.3H6v1.5a.5.5 0 0 1-.5.5h-1a.5.5 0 0 1-.5-.5v-4c0-.28.22-.5.5-.5h1c.28 0 .5.22.5.5V18h4.54l.13-.3a2 2 0 0 1 1.03-1.03l.3-.13V5.44l-.25-.15a1.5 1.5 0 0 1-.54-.54l-.15-.25H7v1a.5.5 0 0 1-.5.5h-1a.5.5 0 0 1-.5-.5v-3c0-.28.22-.5.5-.5h1c.28 0 .5.22.5.5"/></svg>