<svg xmlns="http://www.w3.org/2000/svg" viewBox="0 0 24 24" width="100%" height="100%"><path d="M15.96 19.5H19v1H4.5v-1zm-1.96-9c.6 0 1 .4 1 .8s-.2 1-.2 1.6q.02.54.13.8H15q.1 0 .2.03c.04-.74.33-2.43 1.8-2.43 1.6 0 2 1.6 2 2.2s-.4 1-.8 1-1-.2-1.6-.2q-.54.02-.8.13v.07q0 .1-.03.2c.74.04 2.43.33 2.43 1.8 0 1.6-1.6 2-2.2 2s-1-.4-1-.8.2-1 .2-1.6q-.02-.54-.13-.8H15l-.2-.03c-.04.74-.33 2.43-1.8 2.43-1.6 0-2-1.6-2-2.2s.4-1 .8-1 1 .2 1.6.2q.54-.02.8-.13v-.07q0-.1.03-.2c-.74-.04-2.43-.33-2.43-1.8 0-1.6 1.6-2 2.2-2M6.25 3 8.5 5.5H6.81c.33 2.24 1.46 3.37 1.46 5.95 0 2.49-1.39 4.4-1.5 6.33V18h-1c0-2.25 1.5-4.27 1.5-6.55 0-2.19-1.19-3.71-1.45-5.7L5.8 5.5H4zm11 0 2.25 2.5h-1.69c.32 2.16 1.38 3.29 1.46 5.69v.2l-.07-.09a3 3 0 0 0-1-.76c-.25-1.7-1.13-3.05-1.37-4.72l-.03-.32H15zm-5.5 0L14 5.5h-1.69c.24 1.6.88 2.63 1.23 4.04q-.46.07-.98.3c-.35-1.4-1.04-2.61-1.24-4.07l-.03-.27H9.5z"/></svg>