<svg xmlns="http://www.w3.org/2000/svg" viewBox="0 0 24 24" width="100%" height="100%"><path d="M10.5 9.6c.3 1.18.67 1.97 1.3 2.6s1.42 1 2.6 1.3c-1.16.3-1.95.66-2.57 1.27a5.3 5.3 0 0 0-1.33 2.62 5.3 5.3 0 0 0-1.3-2.6 5.3 5.3 0 0 0-2.6-1.29c1.18-.3 1.97-.67 2.6-1.3s1-1.42 1.3-2.6m0-3.6q-.2 0-.35.39c-.54 2.84-.8 4.26-1.65 5.1-.85.85-2.27 1.12-5.11 1.66-.52.18-.52.52 0 .7 2.84.54 4.26.8 5.1 1.65.85.85 1.12 2.27 1.66 5.11q.15.39.35.39c.2 0 .26-.13.35-.39.54-2.86.81-4.28 1.67-5.13.85-.83 2.27-1.1 5.09-1.63.52-.18.52-.52 0-.7-2.84-.54-4.26-.8-5.1-1.65-.85-.85-1.12-2.27-1.66-5.11Q10.7 6 10.5 6m7-.48q.16.32.4.58s.36.3.58.4a2 2 0 0 0-.98.98 2.2 2.2 0 0 0-.97-.98 2 2 0 0 0 .97-.98m0-2.52q-.1 0-.16.18c-.25 1.33-.38 2-.77 2.39s-1.06.52-2.39.77c-.24.08-.24.24 0 .32 1.4.27 2.05.4 2.44.84.35.4.48 1.06.72 2.32q.07.18.16.18.12 0 .16-.18c.26-1.35.39-2.02.8-2.4.4-.38 1.06-.51 2.36-.76.24-.08.24-.24 0-.32-1.33-.25-1.99-.38-2.38-.77-.4-.4-.53-1.06-.78-2.39Q17.6 3 17.5 3"/></svg>