<svg xmlns="http://www.w3.org/2000/svg" viewBox="0 0 24 24" width="100%" height="100%"><path d="M4 7H3V3h4v1H4zm17-4v4h-1V4h-3V3zm-1 14h1v4h-4v-1h3zM4 20h3v1H3v-4h1zM16.3 8l-3-1.8c-.8-.5-1.8-.5-2.6 0L7.7 8c-.7.4-1.2 1.3-1.2 2.1v3.7c0 .9.5 1.7 1.2 2.1l3 1.8c.4.2.8.4 1.3.4s.9-.1 1.3-.4l3-1.8c.7-.4 1.2-1.3 1.2-2.1v-3.7c0-.8-.5-1.7-1.2-2.1m-5.1-1c.2-.1.5-.2.8-.2s.5.1.8.2l3 1.8.3.3-4.1 2.4-4.1-2.4.3-.3zm-3 8.2c-.4-.3-.7-.8-.7-1.3v-3.8l4 2.4v4.7c-.1 0-.2-.1-.3-.1zm8.3-1.3c0 .5-.3 1-.7 1.3l-3 1.8c-.1.1-.2.1-.3.1v-4.7l4-2.4v.1z"/></svg>