<svg xmlns="http://www.w3.org/2000/svg" viewBox="0 0 24 24" width="100%" height="100%"><path d="m23 9.5-1 .5v8.75c0 1.24-.5 2.25-2 2.25-1.46 0-1.97-.95-2-2.15V13c-.03-.72-.34-.98-1-1v9h-7V6q0-3 3-3h1q3 0 3 3v5c1.25 0 2 .75 2 2v6c0 .75.25 1 1 1s1-.25 1-1v-9a7.5 7.5 0 0 0-.75-3.5 4.6 4.6 0 0 0-2.25-2v-1q2.38 1.15 3.5 2.5 1.1 1.35 1.5 3.5M16 20V6c0-1.44-.56-2-2-2h-1c-1.44 0-2 .56-2 2v14zM9 6v13a2 2 0 0 1-2 2H4a2 2 0 0 1-2-2V6c0-1.1.9-2 2-2V3h3v1a2 2 0 0 1 2 2M8 6a1 1 0 0 0-1-1H4a1 1 0 0 0-1 1v13a1 1 0 0 0 1 1h3a1 1 0 0 0 1-1zM4 17.5h3v1a.5.5 0 0 1-.5.5h-2a.5.5 0 0 1-.5-.5z"/></svg>