<svg xmlns="http://www.w3.org/2000/svg" viewBox="0 0 24 24" width="100%" height="100%"><path d="M5 17.5h3v1a.5.5 0 0 1-.5.5h-2a.5.5 0 0 1-.5-.5zM10 6v13a2 2 0 0 1-2 2H5a2 2 0 0 1-2-2V6c0-1.1.9-2 2-2V3h3v1a2 2 0 0 1 2 2M9 6a1 1 0 0 0-1-1H5a1 1 0 0 0-1 1v13a1 1 0 0 0 1 1h3a1 1 0 0 0 1-1zm9.76 11H12v3h6.76l1.8-1.5zm.06-1q.31 0 .56.21l2.12 1.77c.3.25.3.8 0 1.04l-2.12 1.77a1 1 0 0 1-.56.21H11.5c-.28 0-.5-.15-.5-.5v-4c0-.35.22-.5.5-.5zm.68-4.02-2.12-1.77a1 1 0 0 0-.56-.21H11.5c-.28 0-.5.15-.5.5v4c0 .35.22.5.5.5h5.32q.31 0 .56-.21l2.12-1.77c.3-.25.3-.8 0-1.04M16.76 14H12v-3h4.76l1.8 1.5zM17 5.98l-2.12-1.77a1 1 0 0 0-.56-.21H11.5c-.28 0-.5.15-.5.5v4c0 .35.22.5.5.5h2.82q.31 0 .56-.21L17 7.02c.3-.25.3-.8 0-1.04M14.26 8H12V5h2.26l1.8 1.5z"/></svg>