<svg xmlns="http://www.w3.org/2000/svg" viewBox="0 0 24 24" width="100%" height="100%"><path d="M6.2 3a7.5 7.5 0 0 0 0 10.6l.7-.7a6.5 6.5 0 0 1 0-9.2zm9.9.7.7-.7a7.5 7.5 0 0 1 0 10.6l-.7-.7a6.5 6.5 0 0 0 0-9.2m-8.49.71a5.5 5.5 0 0 0 0 7.78l.7-.7a4.5 4.5 0 0 1 0-6.37zm7.07.71.7-.7a5.5 5.5 0 0 1 .01 7.77l-.7-.7a4.5 4.5 0 0 0 0-6.37m-5.66.7a3.5 3.5 0 0 0 0 4.96l.71-.7a2.5 2.5 0 0 1 0-3.55zm4.25.72.7-.71a3.5 3.5 0 0 1 0 4.95l-.7-.7a2.5 2.5 0 0 0 0-3.55M12.1 9.68a1.5 1.5 0 1 0-1.2 0L7 21.8h2l2.5-3 2.5 3h2zM8.53 20.8h-.16l3.13-9.73 3.13 9.73h-.16l-2.97-3.56z"/></svg>