<svg xmlns="http://www.w3.org/2000/svg" viewBox="0 0 24 24" width="100%" height="100%"><path d="M21.75 11.8c-.35-.15-.7-.25-1.05-.4l-2.4-.9c-1.45-.5-2.85-.95-4.25-1.2l-.55 1.75H9.75c.6-.35 1.25-.7 1.75-.9l.3-1.1C10.75 9.2 9.2 10.2 7.75 11c-5.25.55-6.5 2.3-6.75 3.05 0 .7.2 1.25.5 1.5.1.1.3.25.45.25l1.9.15c.4.65 1.1 1.05 1.9 1.05s1.45-.4 1.9-1h9c.4.6 1.1 1 1.85 1 .95 0 1.75-.6 2.1-1.4l1.9-.35c.2-.25.45-.55.5-1v-.75c0-.45-1-1.6-1.25-1.7M15 10.5q.89.24 1.85.55H15zm7 3.7c0 .05-.05.15-.05.2l-1.5.3-.55.1-.2.5c-.25.45-.7.75-1.2.75-.4 0-.8-.2-1.05-.55l-.3-.45H7.05l-.3.45q-.37.54-1.05.55c-.68.01-.85-.2-1.05-.6l-.2-.4-.5-.05-1.75-.15q-.14-.15-.2-.6c.2-.4 1.25-1.75 5.85-2.2H17c.3 0 .65 0 1.45-.4.65.25 1.25.5 1.9.7.3.1.6.25.9.35.2.2.6.7.7.95.05.15.05.4.05.55"/></svg>