<svg xmlns="http://www.w3.org/2000/svg" viewBox="0 0 24 24" width="100%" height="100%"><path d="M20 6c1.1 0 2 1 2 2v10c0 1-1 2-2 2H4c-1 0-2-1-2-2V8c0-1 1-2 2-2v1c-.5 0-1 .5-1 1v10c0 .5.5 1 1 1h16c.5 0 1-.5 1-1V8c0-.5-.5-1-1-1zm-4 0v1H8V6zm3-2v3h-2V4zM7 4v3H5V4zm.8 10.5c.1 1.3.6 1.8 1.7 1.8s1.6-.4 1.6-1.5c0-1-.4-1.5-1.6-1.5h-.8v-.8h.7c1 0 1.5-.5 1.5-1.3 0-1-.6-1.4-1.5-1.4-1 0-1.5.4-1.6 1.7H7C7.1 10 7.7 9 9.4 9c1.6 0 2.4.8 2.4 2.2 0 .7-.3 1.4-1 1.7.7.2 1.2.8 1.2 1.9 0 1.4-.9 2.2-2.5 2.2-1.7 0-2.5-.8-2.5-2.5z"/><path d="m15.6 9.9-2.1.8v-.8l2.2-.9h.8v8h-.9z"/></svg>