<svg xmlns="http://www.w3.org/2000/svg" viewBox="0 0 24 24" width="100%" height="100%"><path d="M20 7.5c.58.44.97 1.23 1 2V14c0 2.17-1.73 3.9-3.88 3.97L5.5 18a2.5 2.5 0 0 1-2-1H17a3 3 0 0 0 3-3zm2 2c.58.44.97 1.23 1 2v2.98A5.57 5.57 0 0 1 17.5 20h-10a2.5 2.5 0 0 1-2-1h12a4.5 4.5 0 0 0 4.5-4.5zm-9-4.51V4h3v1h.5C17.84 5 19 6 19 7.5v6a2.5 2.5 0 0 1-2.4 2.5H3.5A2.5 2.5 0 0 1 1 13.6V7.5A2.5 2.5 0 0 1 3.4 5H4V4h3v1zM3.5 6c-.8 0-1.45.62-1.5 1.41v6.09c0 .8.62 1.45 1.41 1.5H16.5c.8 0 1.45-.62 1.5-1.41V7.5c0-.8-.62-1.45-1.41-1.5zm12 1v1.5H17v1h-1.5V11h-1V9.5H13v-1h1.5V7zM7 8.5v1H3v-1z"/></svg>