<svg xmlns="http://www.w3.org/2000/svg" viewBox="0 0 24 24" width="100%" height="100%"><path d="M8 3c3.14 0 3.97.91 4 2.05V11h1c1.25 0 2 .75 2 2v6c0 .75.25 1 1 1s1-.25 1-1v-7.5c-1.25-.25-2-1.25-1.99-2.26L15 6.5h1V5a.5.5 0 0 1 1 0v1.5h1V5c0-.28.22-.5.5-.5.24 0 .5.22.5.5v1.5h1v2.75c0 1.19-.75 2-2 2.25v7.25c0 1.24-.5 2.25-2 2.25-1.46 0-1.97-.95-2-2.15V13c-.03-.72-.34-.98-1-1h-1v9H4V5.11C4 3.94 4.8 3 8 3m0 1Q5 4 5 5.11V20h6V5.06Q11 4.01 8 4m11 3.5h-3v1.75c0 .75.5 1.25 1.5 1.25S19 10 19 9.25z"/></svg>