<svg xmlns="http://www.w3.org/2000/svg" viewBox="0 0 24 24" width="100%" height="100%"><path d="M17 20v1H2.5v-1zM4.25 3.5 6.5 6H4.81c.33 2.24 1.46 3.37 1.46 5.95s-1.5 4.55-1.5 6.55h-1c0-2.25 1.5-4.27 1.5-6.55S3.97 8.11 3.8 6H2zm5.5 0L12 6h-1.69c.33 2.24 1.46 3.37 1.46 5.95s-1.5 4.55-1.5 6.55h-1c0-2.25 1.5-4.27 1.5-6.55S9.47 8.11 9.3 6H7.5zM16.5 3v1.98l1.2-.7.5.87-1.2.7 2.5 1.4V6h1v1.25l1.96-1.06.5.87-1.93 1.12 1.2.7-.5.86-1.2-.7v2.92l1.2-.7.5.87-1.2.7 1.93 1.11-.5.87-1.93-1.12L20.5 15h-1l.03-1.3L17 15.14l1.2.7-.5.86-1.2-.7v2h-1v-1.98l-1.2.7-.5-.87 1.2-.7-1.85-1.02.35-1 2.5 1.44 3.53-2.03V8.47L16 6.43l-2.5 1.44-.35-.97L15 5.85l-1.2-.7.5-.86 1.2.7V3z"/></svg>