<svg xmlns="http://www.w3.org/2000/svg" viewBox="0 0 24 24" width="100%" height="100%"><path d="M19 5H5a2 2 0 0 0-2 2v10c0 1.1.9 2 2 2h14a2 2 0 0 0 2-2V7a2 2 0 0 0-2-2m1 12a1 1 0 0 1-1 1H5a1 1 0 0 1-1-1V7a1 1 0 0 1 1-1h14a1 1 0 0 1 1 1zm-6.42-5.04c0 2.08.21 2.42 1.29 2.42.87 0 1.08-.38 1.15-1.54h.99c-.07 1.69-.59 2.37-2.13 2.37-1.87 0-2.37-.81-2.37-3.24s.56-3.19 2.37-3.19 2.06.76 2.13 2.43h-1c-.05-1.15-.26-1.49-1.14-1.49-1.08 0-1.29.39-1.29 2.25zm-5.5 0c0 2.08.21 2.42 1.29 2.42.87 0 1.08-.38 1.15-1.54h.99c-.07 1.69-.59 2.37-2.13 2.37-1.87 0-2.37-.81-2.37-3.24s.56-3.19 2.37-3.19 2.06.76 2.13 2.43h-1c-.05-1.15-.26-1.49-1.14-1.49-1.08 0-1.29.39-1.29 2.25z"/></svg>