<svg xmlns="http://www.w3.org/2000/svg" viewBox="0 0 24 24" width="100%" height="100%"><path d="m11.56 4 1.8 1.5-1.8 1.5H4V4zm.06-1H3.5c-.28 0-.5.15-.5.5v4c0 .35.22.5.5.5h8.12q.31 0 .56-.21l2.12-1.77c.3-.25.3-.8 0-1.04l-2.12-1.77a1 1 0 0 0-.56-.21m3.54 7.5 1.8 1.5-1.8 1.5H4v-3zm.06-1H3.5c-.28 0-.5.15-.5.5v4c0 .35.22.5.5.5h11.72q.31 0 .56-.21l2.12-1.77c.3-.25.3-.8 0-1.04l-2.12-1.77a1 1 0 0 0-.56-.21m3.04 7.5 1.8 1.5-1.8 1.5H4v-3zm.06-1H3.5c-.28 0-.5.15-.5.5v4c0 .35.22.5.5.5h14.82q.31 0 .56-.21L21 19.02c.3-.25.3-.8 0-1.04l-2.12-1.77a1 1 0 0 0-.56-.21"/></svg>