<svg xmlns="http://www.w3.org/2000/svg" viewBox="0 0 24 24" width="100%" height="100%"><path d="M6.68 6.45C8 6.45 8.37 7 8.45 8.78H10C9.89 6.18 9.39 5 6.68 5S3 6.13 3 10s.77 5 3.68 5c2.41 0 3.21-1.06 3.32-3.68H8.46c-.09 1.81-.42 2.39-1.78 2.39-1.68 0-2-.53-2-3.76-.01-2.89.32-3.5 2-3.5m8-1.45C11.87 5 11 6.13 11 10s.77 5 3.68 5 3.67-1.26 3.67-5-.87-5-3.67-5m0 8.71c-1.68 0-2-.53-2-3.76 0-2.89.33-3.5 2-3.5s2 .61 2 3.5c0 3.23-.33 3.76-2 3.76m4.93 3.82.51-.32c.54-.26.88-.8.88-1.41 0-.86-.39-1.39-1.49-1.39S18 15 18 15.91h.84c0-.57.19-.71.66-.71s.63.15.63.6-.27.71-.65.95l-.52.32c-.55.26-.9.82-.89 1.43v.5h2.87v-.7h-2c-.01-.3.23-.49.67-.77"/></svg>