<svg xmlns="http://www.w3.org/2000/svg" viewBox="0 0 24 24" width="100%" height="100%"><path d="M12 10.05c2.5 0 5.5 1.15 8.35 2.3.3.1.6.25.9.35.2.2.6.7.7.95v.55c0 .05-.05.15-.05.2l-1.5.3-.55.1-.2.5a1.26 1.26 0 0 1-2.2.2l-.3-.45H7.1l-.3.45q-.37.54-1.05.55c-.68.01-.85-.2-1.05-.6l-.25-.4-.5-.05-1.75-.15q-.14-.15-.2-.6c.2-.4 1.25-1.75 5.85-2.2h.2l.2-.1.8-.45c1-.65 2.35-1.45 2.95-1.45m0-1c-1.05 0-2.7 1.1-4.25 2-5.25.5-6.5 2.25-6.75 3 0 .7.2 1.25.5 1.5.1.1.3.25.45.25l1.9.15c.4.65 1.1 1.05 1.9 1.05s1.45-.4 1.9-1h9c.4.6 1.1 1 1.85 1 .95 0 1.75-.6 2.1-1.4l1.9-.35c.2-.25.45-.55.5-1v-.75c0-.5-1-1.65-1.25-1.75-3.25-1.2-6.75-2.7-9.75-2.7"/></svg>