<svg xmlns="http://www.w3.org/2000/svg" viewBox="0 0 24 24" width="100%" height="100%"><path d="M10.2 9.2c.3-.4.5-1 .5-1.5C10.6 6.2 9.5 5 8 5S5.4 6.2 5.4 7.7s1.2 2.6 2.6 2.6c.5 0 1-.2 1.4-.4l1.8 1.9-1.9 2c-.3-.2-.8-.3-1.3-.3-1.5 0-2.6 1.2-2.6 2.6 0 1.5 1.2 2.6 2.6 2.6s2.6-1.2 2.6-2.6c0-.6-.2-1.1-.5-1.5l1.8-2L17 18h1.3zM8 9.3c-.9 0-1.6-.7-1.6-1.6S7.1 6.1 8 6.1s1.6.7 1.6 1.6S8.9 9.3 8 9.3m0 8.4c-.9 0-1.6-.7-1.6-1.6s.7-1.6 1.6-1.6 1.6.7 1.6 1.6-.7 1.6-1.6 1.6"/><path d="m18.4 5.6-1.3-.1-4.4 4.8.7.8zm38.8 1.1a2 2 0 0 0-2-2c-.6 0-.9.2-1.4.6L51 8.1l2.8 2.8 2.7-2.7c.4-.4.7-.9.7-1.5"/><path d="m51.1 9.5 1.4 1.4-7.4 7.4h-1.4V17zm0-1.4-8.4 8.6v2.7h2.8l8.4-8.4zm3.7 4.3-5.3-5.3"/></svg>