<svg xmlns="http://www.w3.org/2000/svg" viewBox="0 0 24 24" width="100%" height="100%"><path fill-rule="evenodd" d="M18.05 13.51c1.18 0 2.02-.57 2.02-1.65 0-.47-.3-.94-.74-1.28.2-.24.34-.57.34-.84 0-.54-.4-.97-.77-1.24q.16-.31.17-.77c0-.61-.4-1.14-1.04-1.38q.04-.16.03-.37c0-.71-.74-1.51-1.75-1.51H11.5c-.64 0-1.21.27-1.75.54q-.39.21-.78.35a1 1 0 0 0-1-.92H4.95a1 1 0 0 0-1.01 1.01v7.06a1 1 0 0 0 1.01 1.01h3.02c.41 0 .75-.22.91-.56 1.02.82 2.15 1.94 2.62 3.21l.5 2.72c.03.13.1.27.24.34.47.3.81.34 1.28.34.71 0 1.51-.61 1.51-3.53 0-.74-.13-1.61-.37-2.52zm-9.07-1.75V6.42c.44-.1.84-.3 1.24-.5.44-.24.91-.44 1.28-.44h4.81c.4 0 .74.2.74.5q0 .34-.06.52c-.03.16-.05.26.02.39q.09.1.33.18c.27.1.61.23.67.56v.1c0 .3-.09.48-.16.64s-.14.29-.07.47c.04.12.18.19.33.27.25.13.54.28.54.67 0 .32-.14.51-.26.67-.1.14-.19.25-.14.41q.08.15.29.29c.22.15.48.33.48.72s-.47.64-.97.64h-4.54c-.27 0-.5.24-.5.5s.24.5.5.5h.13q.4 1.41.4 2.52c0 1.92-.4 2.52-.5 2.52-.27 0-.4 0-.57-.07l-.47-2.52s-.03-.03-.03-.07c-.64-1.75-2.25-3.19-3.49-4.13M4.94 5.45v7.06h3.02V5.45z"/></svg>