<svg xmlns="http://www.w3.org/2000/svg" viewBox="0 0 24 24" width="100%" height="100%"><path fill-rule="evenodd" d="M8.24 5.35c0-.68-.64-.91-1.04-.91H4.94a1 1 0 0 0-1.01 1.01v7.06a1 1 0 0 0 1.01 1.01H7.3c.68 0 .94-.47.94-.87zm11.09 5.24c.2-.24.34-.57.34-.84 0-.54-.4-.97-.77-1.24q.16-.31.17-.77c0-.61-.4-1.14-1.04-1.38q.04-.16.03-.37c0-.71-.74-1.51-1.75-1.51H11.5c-.64 0-1.2.28-1.75.54-.26.12-.42.18-.68.31 0 0-.12.06-.12.2v7.35q0 .09.02.14l.06.08a8 8 0 0 1 2.46 3.08l.5 2.72c.03.13.1.27.24.34.47.3.81.34 1.28.34.71 0 1.51-.61 1.51-3.53 0-.74-.13-1.61-.37-2.52h3.39c1.18 0 2.02-.57 2.02-1.65 0-.47-.3-.94-.74-1.28z"/></svg>