<svg xmlns="http://www.w3.org/2000/svg" viewBox="0 0 24 24" width="100%" height="100%"><path d="M12 3a6.5 6.5 0 0 0-6.45 6.57v7.84A3.54 3.54 0 0 0 9.02 21a3.9 3.9 0 0 0 3.28-1.72q.24-.33.57-.94c.57-1 1.36-2.39 2.38-3.1a7 7 0 0 0 3.2-5.67C18.45 5.95 15.55 3 12 3m2.68 11.43c-1.2.83-2.1 2.39-2.68 3.42q-.3.54-.5.84A2.9 2.9 0 0 1 9.02 20a2.54 2.54 0 0 1-2.47-2.59V9.57C6.55 6.5 8.99 4 12 4s5.45 2.5 5.45 5.57c0 2.56-1.74 4.14-2.77 4.86m1.39-5.16a.5.5 0 1 1-1 0c0-1.57-1.38-2.84-3.07-2.84S8.93 7.7 8.93 9.27v1.3a8 8 0 0 1 2.5-.28A1.72 1.72 0 0 1 12.77 13a10 10 0 0 0-1.48 2.16.5.5 0 0 1-.97-.25c.2-.8 1.42-2.25 1.66-2.53a.7.7 0 0 0 .03-.72.7.7 0 0 0-.61-.37c-.5-.03-1.76 0-2.47.35v2.18a.5.5 0 1 1-1 0V9.27c0-2.12 1.83-3.84 4.07-3.84s4.07 1.72 4.07 3.84"/></svg>