<svg xmlns="http://www.w3.org/2000/svg" viewBox="0 0 24 24" width="100%" height="100%"><path d="M13 2H7a2 2 0 0 0-2 2v16c0 1.1.9 2 2 2h10a2 2 0 0 0 2-2V8zm0 1.4L17.6 8H13zM6 20V4c0-.6.4-1 1-1h5v6h6v11c0 .6-.4 1-1 1H7c-.6 0-1-.4-1-1"/><path d="M16.3 11.4H13v1.1h1.1v.7H13v.7h1.1v.7H13v.7h1.1v.7H13v.7h1.1v.7H13v1.1h3.3q.3 0 .3-.3v-6.5c0-.1-.1-.3-.3-.3m-.4 6.1h-1.4v-.7h1.4zm0-1.4h-1.4v-.7h1.4zm0-1.5h-1.4v-.7h1.4zm0-1.4h-1.4v-.7h1.4zm-8.5-1.8v7.2l5.3 1v-9.2zm3.4 5.4-.6-1.2s0-.1-.1-.2c0 .1 0 .1-.1.3l-.6 1.2h-1L9.5 15l-1.1-1.8h1l.5 1.1c0 .1.1.2.1.3 0-.1.1-.2.1-.3l.6-1.1h.9l-1 1.8 1.1 1.8z"/></svg>