<svg xmlns="http://www.w3.org/2000/svg" viewBox="0 0 24 24" width="100%" height="100%"><path d="M19.04 8.98a.5.5 0 0 1-.47-.32c-1-2.63-2.44-3.99-4.83-4.53-3.01-.69-5.83 1.69-5.86 1.71a.5.5 0 0 1-.65-.76c.13-.1 3.22-2.73 6.73-1.93 2.72.62 4.43 2.21 5.54 5.15a.5.5 0 0 1-.46.68m-11.5 9a.5.5 0 0 1-.5-.5c0-3.7 1.86-8.84 4.9-8.84a3.2 3.2 0 0 1 3.05 3.33c0 .65-.35 1.56-.7 2.45-.23.57-.5 1.29-.5 1.55 0 .98.68.98.9.98 1.7 0 2.27-3.44 2.27-5.01 0-.22-.05-5.23-4.4-5.23-5.16 0-6.56 6.74-6.57 6.8a.5.5 0 0 1-.98-.2c.01-.07 1.56-7.6 7.54-7.6 4.28 0 5.4 4.07 5.4 6.23 0 1.67-.58 6.01-3.25 6.01-1.42 0-1.92-1.06-1.92-1.98 0-.45.27-1.13.58-1.92.28-.72.63-1.62.63-2.08 0-1.44-1.06-2.33-2.05-2.33-2.1 0-3.9 4.31-3.9 7.84a.5.5 0 0 1-.5.5m3.97 2.48a.5.5 0 0 1-.31-.1c-.06-.06-1.44-1.2-1.44-2.87 0-2.07 1.74-6.03 1.81-6.2a.5.5 0 1 1 .91.4c-.01.04-1.72 3.94-1.72 5.8 0 1.2 1.06 2.08 1.07 2.09a.5.5 0 0 1-.32.88"/></svg>