<svg xmlns="http://www.w3.org/2000/svg" viewBox="0 0 24 24" width="100%" height="100%"><path d="m15.65 9.65.7.7L11 15.71l-3.35-3.36.7-.7L11 14.29zm3.54 5.83.14 3.07-3.06.3-1.54 2.65L12 20.1l-2.73 1.4-1.54-2.66-3.06-.3.14-3.06-2.4-1.9 1.77-2.5-1-2.91 2.85-1.15.73-2.98 3.01.57L12 2.5l2.23 2.11 3.01-.57.73 2.98 2.85 1.15-1 2.9 1.78 2.5zM18.17 15l2.06-1.63-1.52-2.15.86-2.49-2.45-.98-.62-2.56-2.6.5L12 3.87l-1.91 1.81L7.5 5.2l-.62 2.56-2.45.98.86 2.5-1.52 2.14 2.06 1.63-.12 2.63 2.63.26 1.32 2.28 2.34-1.2 2.34 1.2 1.32-2.28 2.63-.26z"/></svg>