<svg xmlns="http://www.w3.org/2000/svg" viewBox="0 0 24 24" width="100%" height="100%"><path d="M18 9.42C18 8.55 17.4 8 16.69 8h-.24q-.15 0-.3.04V6.42c0-.87-.6-1.42-1.31-1.42h-.3q-.16 0-.31.04V3.42c0-.87-.6-1.41-1.32-1.41h-.36a1.3 1.3 0 0 0-1.27 1.05 1 1 0 0 0-.34-.06h-.29c-.65 0-1.18.5-1.27 1.18l-.83 8.4-.45-1.45a2.2 2.2 0 0 0-.88-1.42 2 2 0 0 0-1.6-.32.8.8 0 0 0-.5.37 1 1 0 0 0-.1.65l1.78 5.42q.17.76.68 1.3l.93 1L8.69 21h8.3v-1.02c0-.36.2-1.36.4-2.32.28-1.31.59-2.8.6-3.67zm-1.59 8.05a17 17 0 0 0-.42 2.52v.02h-6.4l-.19-1.98a1 1 0 0 0-.26-.59l-.93-1a2 2 0 0 1-.46-.92l-1.7-5.18h.03q.3 0 .56.19.38.28.48.78l.03.12.45 1.44a1 1 0 0 0 1.95-.2l.81-8.35c.03-.18.15-.32.3-.32h.28c.11 0 .3.18.3.4V11a.5.5 0 0 0 1 0V3.41c0-.38.24-.41.3-.41h.37c.29 0 .32.29.32.41V11a.5.5 0 1 0 1 0V6.4c0-.32.23-.4.3-.4h.3c.3 0 .32.3.32.42V12a.5.5 0 1 0 1 0V9.4c0-.36.23-.4.3-.4h.24c.28 0 .3.3.3.42V14c0 .76-.3 2.2-.58 3.48"/></svg>