<svg xmlns="http://www.w3.org/2000/svg" viewBox="0 0 24 24" width="100%" height="100%"><path d="M13.26 4a5 5 0 0 0 2 2.34q1.53.64 3.2.66l.26.42a7.6 7.6 0 0 0-2 4.8 7 7 0 0 0 2.07 5l-.34.67q-1-.23-2-.3A6.2 6.2 0 0 0 12 19.4a6.2 6.2 0 0 0-4.38-1.84q-1.05.07-2.07.3l-.34-.67a6.8 6.8 0 0 0 2.07-5 7.6 7.6 0 0 0-2-4.78L5.54 7a9 9 0 0 0 3.19-.68c.9-.54 1.6-1.36 2-2.34h2.54zM14 3h-4a4 4 0 0 1-1.78 2.49A9 9 0 0 1 5 6L4 7.6a6.6 6.6 0 0 1 2.28 4.67C6.38 14.2 5.35 15.68 4 17l1 2q1.3-.3 2.62-.44A5.2 5.2 0 0 1 12 21a5.2 5.2 0 0 1 4.42-2.44q1.3.14 2.58.44l1-2a6.3 6.3 0 0 1-2.28-4.73c.08-1.8.9-3.5 2.28-4.67L19 6h-.32q-1.5-.02-2.9-.54A4 4 0 0 1 14 3"/></svg>