<svg xmlns="http://www.w3.org/2000/svg" viewBox="0 0 24 24" width="100%" height="100%"><path d="M14 6.92V4a1 1 0 0 0-1-1h-2a1 1 0 0 0-1 1v2.92a5 5 0 1 0 4 0M11 4h2v2.6a5 5 0 0 0-2 0zm1 11.5a4 4 0 1 1 0-8 4 4 0 0 1 0 8M5.5 12h-2a.5.5 0 1 1 0-1h2a.5.5 0 1 1 0 1m15.5-.5a.5.5 0 0 1-.5.5h-2a.5.5 0 1 1 0-1h2c.28 0 .5.22.5.5M7.76 16.45l-1.42 1.41a.5.5 0 1 1-.7-.7l1.41-1.42a.5.5 0 1 1 .7.71m10.6-11.31c.2.2.2.5 0 .7l-1.41 1.42a.5.5 0 1 1-.7-.71l1.4-1.41c.2-.2.52-.2.71 0M12.5 18v2a.5.5 0 1 1-1 0v-2a.5.5 0 1 1 1 0m4.45-2.26 1.41 1.42a.5.5 0 1 1-.7.7l-1.42-1.41a.5.5 0 1 1 .71-.7M5.64 5.14c.2-.2.5-.2.7 0l1.42 1.41a.5.5 0 1 1-.71.7l-1.41-1.4a.5.5 0 0 1 0-.71"/></svg>