<svg xmlns="http://www.w3.org/2000/svg" viewBox="0 0 24 24" width="100%" height="100%"><path d="M11.55 13.79q.37.82.25 1.72a3.3 3.3 0 0 1-.6 1.58q-.65.82-1.67 1.11a8 8 0 0 1-3.83.09A3.4 3.4 0 0 1 3 15v-.09h2.22v.14a2 2 0 0 0 .21.63q.29.49.81.69c.8.32 1.69.35 2.51.09.4-.1.73-.41.84-.82a.9.9 0 0 0-.32-1q-.46-.35-1-.53-.7-.23-1.42-.41a16 16 0 0 1-2-.56 2.3 2.3 0 0 1-1.27-1 3.5 3.5 0 0 1-.1-3c.35-.7.96-1.22 1.7-1.45Q6 7.4 6.87 7.38q1.21-.1 2.38.26a3.1 3.1 0 0 1 2.12 2.45q.06.27.07.55v.07h-2q-.05-.3-.19-.55a1.7 1.7 0 0 0-1.33-.94 4 4 0 0 0-1.62 0c-.54.13-.92.62-.91 1.17q0 .37.3.61.45.35 1 .48l2.27.6a8 8 0 0 1 1.43.48c.52.26.93.7 1.16 1.23m3.46.33L17.3 21l-.65-.46-4.44-3.15v-.07a4 4 0 0 0 .55-1.32l1.68 1.19-.13-.4-1.07-3.2 3.15-2.23h-3.91v-.16q0-.52-.07-1.06a4.2 4.2 0 0 0-2.32-3.22h-.08L11.3 3l2.28 6.87H21z"/></svg>