<svg xmlns="http://www.w3.org/2000/svg" viewBox="0 0 24 24" width="100%" height="100%"><path d="M22 12.03a2.19 2.19 0 0 0-3.71-1.57 11 11 0 0 0-5.86-1.86l1-4.68 3.26.7a1.56 1.56 0 0 0 3.12-.07 1.56 1.56 0 0 0-2.96-.68l-3.64-.77a.4.4 0 0 0-.29.05q-.13.08-.16.25l-1.11 5.21c-2.33.07-4.43.77-5.95 1.86-.38-.37-.92-.6-1.51-.6a2.18 2.18 0 0 0-.9 4.16q-.05.32-.05.66c0 3.36 3.92 6.1 8.76 6.1s8.76-2.72 8.76-6.1c0-.2-.02-.45-.05-.66a2.2 2.2 0 0 0 1.29-2M6.98 13.58a1.56 1.56 0 0 1 3.12 0c0 .85-.7 1.55-1.56 1.55a1.53 1.53 0 0 1-1.56-1.55m8.73 4.13c-1.08 1.07-3.12 1.14-3.71 1.14-.61 0-2.65-.09-3.71-1.14a.4.4 0 1 1 .57-.57c.68.68 2.11.91 3.14.91s2.47-.23 3.14-.9a.4.4 0 0 1 .57 0c.14.15.14.4 0 .56m-.29-2.55c-.86 0-1.56-.7-1.56-1.55a1.56 1.56 0 0 1 3.12 0c0 .83-.7 1.55-1.56 1.55"/></svg>