<svg xmlns="http://www.w3.org/2000/svg" viewBox="0 0 24 24" width="100%" height="100%"><path d="M20.43 13.05q-.52-1.04-1.18-2c.24-.52.24-1.11 0-1.63a6 6 0 0 1-.37-.66c-.13-.37-.11-.8-.2-1.15a8 8 0 0 0-.31-1C17.55 4.45 15.8 3.26 13 3h-1.08q-1.18.1-2.28.53-.93.41-1.64 1.12a6 6 0 0 0-1.86 3.6v.36c0 .11-.14.18-.14.3q-.12.34-.12.69c-.33.41-.44.96-.3 1.47a7 7 0 0 0-1.91 2.12A5 5 0 0 0 3 16c0 .31.08.77.34.83q.21.02.4-.09.52-.27.85-.74c.09-.15.1-.34.26-.45q.1.22.15.45c.3.78.8 1.48 1.45 2 .1.08.26.16.29.27-.67.06-1.21.2-1.44.64q-.18.4-.14.82c.06.52.67.81 1.13 1q1.53.41 3.12.27a5 5 0 0 0 2.34-.67c.1-.06.19-.16.28-.17h.78q.45.11.86.28c1.53.49 4.1.6 5.35-.18a1 1 0 0 0 .48-.63.9.9 0 0 0-.5-.83q-.59-.4-1.22-.71a5 5 0 0 0 1.1-1.67q.09-.33.3-.62.18.37.42.71c.14.2.33.52.6.51a.6.6 0 0 0 .4-.27q.36-.5.4-1.13a5 5 0 0 0-.57-2.56z"/></svg>