<svg xmlns="http://www.w3.org/2000/svg" viewBox="0 0 24 24" width="100%" height="100%"><path d="M19.61 15.96c.75.6 1.72 1.1 1.26 2.36a4.2 4.2 0 0 1-3.49 2.64 6 6 0 0 1-.93-.26A23.4 23.4 0 0 1 3.32 7.77c-.85-2 0-3.76 2.18-4.47q.57-.2 1.13 0c.91.33 3.23 3.45 3.28 4.38a1.6 1.6 0 0 1-.9 1.43 1.6 1.6 0 0 0-.54 2.29 8.4 8.4 0 0 0 4.42 4.22c.65.4 1.5.2 1.9-.45.87-1.3 2-1.23 3.13-.42q.91.59 1.74 1.24zm-6.88-12c-.37 0-.93 0-.9-.46 0-.71.71-.44 1-.49a8.44 8.44 0 0 1 8 8.18c0 .41.14 1-.49 1s-.44-.63-.49-1c-.57-4.43-2.64-6.52-7.13-7.2zm.88 1.22a5.6 5.6 0 0 1 5 5.27c-.05.3.13.83-.37.91-.68.09-.55-.52-.62-.91-.46-2.69-1.42-3.69-4.19-4.29-.4-.09-1 0-.94-.65s.7-.43 1.12-.37zm.26 2.11a3 3 0 0 1 2.64 2.67c0 .34 0 .7-.44.75s-.49-.21-.52-.51a2 2 0 0 0-1.85-2c-.34-.05-.67-.16-.5-.61.1-.3.38-.33.67-.34z"/></svg>