<svg xmlns="http://www.w3.org/2000/svg" viewBox="0 0 24 24" width="100%" height="100%"><path d="M13.78 10.09v.13c-.18.56-.63 1-1 .9s-.53-.57-.35-1.13.63-1 1-.9q.15.02.24.12c-.08-.46-.4-.85-.85-1a1.4 1.4 0 0 0-1.41.79c0-.86-.33-1.53-.87-1.7-.8-.3-1.79.7-2.21 2.07-.42 1.4-.11 2.73.69 3 .64.08 1.27-.24 1.58-.81 0 1 .37 1.76 1 1.9.81.19 1.75-.79 2.08-2.22q.14-.56.11-1.13zm-.28-.66c-.35-.15-.69.14-.44.37.35.15.69-.13.44-.37m-3.43.67c-.35-.1-.46-.6-.24-1.1s.69-.93 1-.85.45.59.23 1.15-.64.88-.99.8m.63-1.73a.25.25 0 1 0 0 .48c.17 0 .32-.11.32-.24s-.14-.24-.32-.24M21 10.61c.24.72-.4 2-1.39 3a9 9 0 0 1-3.31 1.74l.3 3c.13 1.18.27 2.36-.84 2.59s-2.64-.49-4-1.49l-2-1.53s-1.31 1-2.35 1.68-1.63.9-2.41-.06-.83-3.45-.64-4.71q.2-1.21.55-2.4A9.6 9.6 0 0 1 3 7.16c.08-2.68 1.43-2.08 2.14-1.64.9.57 1.93.92 3 1C8.14 6.52 11 3 13.33 3c1.26 0 1.41 1.57 1.67 2.81S15.51 9 15.51 9q1.23.34 2.49.53c1.71.31 2.75.36 3 1.08m-7.36 3.24.38.31a2 2 0 0 1-.19-.44l-.16-.62-.08.61s-2.9 2-4.56 1.38-2-3.52-2-3.52l.38-.44q-.24.16-.52.27-.23.1-.48.17h.48s.08 3.34 2 3.95 4.71-1.67 4.72-1.67z"/></svg>