<svg xmlns="http://www.w3.org/2000/svg" viewBox="0 0 24 24" width="100%" height="100%"><path d="M21 7.6q0-.84-.18-1.65a3.7 3.7 0 0 0-1.64-2.28q-.64-.42-1.4-.55-.59-.1-1.18-.11L16.5 3h-9l-.35.02a5 5 0 0 0-1.64.3 3.8 3.8 0 0 0-2.43 3.14q-.06.44-.07.89L3 7.42v9.16l.02.32c.04.61.11 1.22.37 1.78a3.7 3.7 0 0 0 2.43 2.1q.47.14.97.17.62.05 1.25.05h8.27q.6 0 1.18-.08a3.8 3.8 0 0 0 3.4-3.26c.1-.5.11-1.01.11-1.52zm-4.82 2.98v4.29q.02.47-.18.9-.33.67-1.04.86a4 4 0 0 1-.8.13 1.4 1.4 0 0 1-.68-2.67q.37-.17.76-.24l.85-.18q.31-.08.38-.39l.02-.14-.02-4.23q-.05-.17-.23-.17t-.36.05l-1.7.34-1.75.35-1.03.21-.04.01c-.2.06-.28.15-.29.37v5.95q.01.48-.16.92-.32.71-1.08.93a3 3 0 0 1-.8.12 1.4 1.4 0 0 1-1.45-1.15 1.4 1.4 0 0 1 .87-1.56q.4-.15.83-.23l.65-.14q.42-.1.44-.53V7.6q0-.13.04-.27.09-.32.4-.4l.59-.12 1.65-.33 1.7-.34 1.5-.3q.26-.06.5-.08.38-.02.42.36v.17z"/></svg>