<svg xmlns="http://www.w3.org/2000/svg" viewBox="0 0 24 24" width="100%" height="100%"><path d="m5.1 8.17.78-1.73c.1-.2.35-.6.83-.37s.2.82.2.82l-2 4.45s-.33.52-.77.28-.22-.8-.22-.8l.61-1.32S3.48 7.7 3.11 7a.7.7 0 0 1 .06-.83c.42-.27.71-.1.94.25s1 1.75 1 1.75m3.53-2.16a2 2 0 0 1 1.88 2.16 2 2 0 0 1-1.88 2 2 2 0 0 1-1.86-2.1 2 2 0 0 1 1.86-2.06m0 3.2c.5 0 .86-.45.86-1.1s-.35-1.08-.85-1.08-.87.43-.87 1.08.38 1.06.87 1.06zm2-2.5c0-.26.1-.63.52-.63s.48.35.48.6v1.84c0 .37.15.84.71.84s.68-.52.68-.85V6.7c0-.26.1-.6.5-.6a.5.5 0 0 1 .47.58v2c0 .83-.44 1.53-1.69 1.53a1.47 1.47 0 0 1-1.67-1.54v-2zm7 0c0-.26.1-.63.52-.63s.47.35.47.6v1.84c0 .37.15.84.71.84s.7-.52.7-.85V6.7c0-.26.07-.6.47-.6a.5.5 0 0 1 .5.58v2c0 .83-.45 1.53-1.69 1.53a1.47 1.47 0 0 1-1.67-1.54v-2zm-3.5 2.88V6.77a.55.55 0 1 1 1.1 0v1s1.17-1.25 1.41-1.47a.53.53 0 0 1 .84.16c.08.2.03.41-.12.55l-1 1.07 1.15 1.2a.5.5 0 0 1 0 .72.63.63 0 0 1-.83 0l-1.45-1.38v1a.55.55 0 0 1-.96.44.6.6 0 0 1-.13-.44zm-6.3 3.06a8 8 0 0 1-.59 1.52v4.15h-.72v-2.9q-.17.3-.38.58l-.64-.48q1-1.51 1.58-3.25zm-.07 5.71-.64-.56a4.2 4.2 0 0 0 1.58-3.19H7.48v-.64h1.3v-1.64h.7v1.64h2.27v.64h-1.37v2.93c0 .08 0 .12.11.12h.5q.12 0 .18-.16.07-.53.07-1.08l.76.23v.61a1 1 0 0 1-.79 1.1h-.94a.7.7 0 0 1-.6-.63v-3.1H9.5a5.2 5.2 0 0 1-1.73 3.75zm3.87-5-.48.53-1.16-1 .5-.52zm5.88 1.4h1.2v.6h-3.08v-.6h1.24v-.87h-.59q-.06.36-.16.7l-.6-.1q.18-.9.25-1.8h.67q0 .3-.05.6h.47v-.84h.66v.84h.94v.61h-.95zm-1.75 3v-2.08h2.7v2.17s-.08.51-.55.51h-1.67c-.25 0-.48-.19-.48-.6m.7-1.48v1.31s0 .15.2.15h1a.14.14 0 0 0 .15-.15v-1.3zm-1.28-2.55c.2 0 .22.1.22.32v3.72s-.27.6-.49.6H13c-.37 0-.65-.17-.65-.57v-3.84a.2.2 0 0 1 .23-.23h.73v-.56h-1v-.6h3.1v.6h-.83v.6zm-.6.73v.9q-.02.1.07.11h.16v-1zm-.73-1.29v.6H14v-.6zm-.86 1.3v1.18q.25-.34.25-.75v-.44zm0 1.45v.48h1.78v-.36h-.37a.47.47 0 0 1-.45-.49v-1.09h-.13v.4c.05.49-.12.97-.46 1.31zm1.66 1.82c.16 0 .12-.1.12-.1V17H13v.62q.01.12.13.11z"/></svg>