<svg xmlns="http://www.w3.org/2000/svg" viewBox="0 0 24 24" width="100%" height="100%"><path d="M18.38 5.62a9 9 0 0 0-15.32 6.3c0 1.58.43 3.14 1.24 4.5L3 21l4.75-1.24A9 9 0 0 0 21 11.93c0-2.36-.94-4.62-2.62-6.28zM12 19.34a7.5 7.5 0 0 1-3.83-1.05L8 18.15l-2.82.73.76-2.73-.18-.28a7.45 7.45 0 1 1 13.76-3.94A7.45 7.45 0 0 1 12 19.34m4.09-5.55c-.23-.12-1.33-.65-1.53-.73s-.36-.11-.51.11-.58.73-.71.87-.26.17-.48.06a6 6 0 0 1-3.01-2.64A.32.32 0 0 1 10 11a5 5 0 0 0 .56-.76.4.4 0 0 0 0-.39c-.06-.11-.51-1.21-.69-1.66s-.37-.37-.51-.38h-.49q-.36 0-.6.28c-.51.48-.8 1.16-.79 1.86.08.84.4 1.65.92 2.31a10 10 0 0 0 3.82 3.36q.59.25 1.19.45.76.25 1.54.11a2.3 2.3 0 0 0 1.49-1.06q.24-.54.11-1.12c-.05-.09-.2-.14-.42-.26z"/></svg>