<svg xmlns="http://www.w3.org/2000/svg" viewBox="0 0 24 24" width="100%" height="100%"><path d="M11.86 8.32h3.23c.8 0 2.54 0 3 .05l-.42.67q-.87.13-1.73.34c-.42.14-4 3-4.22 3.71q-.1.5-.09 1l-.05.58q.03.7.14 1.37c.23.05 1.92 0 2.25.05l-.05.73h-3.7c-.66 0-2.67.05-3.28.05l.06-.65c.33 0 1.74.05 2.06-.29.14-.15.1-.34.1-1.32v-.44q.03-.5 0-1a37 37 0 0 0-4.1-5.2c-.23 0-1.69-.19-2.06-.29v-.64c.19-.1 1.83 0 3.42 0h3.71l-.1.53c-.28.1-1.83.15-2.2.25 1 1.56 2.62 3.61 3.14 4.4.28-.45 2.81-2.25 2.9-2.89q-.93-.19-1.87-.29zm8-.25c.79.1.94.1 1.17.15l-.36 1.12c-.33.93-1.17 5-1.26 5.27l-1.13-.1c.1-.58 0-5.17 0-5.66l-.05-1q.8.15 1.6.2zM18 15.6l.8.1h.65l-.18 1.37h-.61l-.61-.09z"/></svg>