<svg xmlns="http://www.w3.org/2000/svg" viewBox="0 0 24 24" width="100%" height="100%"><path d="M14.63 14.3q.01 1.02-.42 1.93a4 4 0 0 1-1.14 1.42q-.82.66-1.84.94-1.25.31-2.54.28H3V4h5q1.26-.01 2.51.12a5 5 0 0 1 1.57.53q.77.37 1.21 1.1.4.8.39 1.66a3.4 3.4 0 0 1-2.07 3.2v.08a4 4 0 0 1 2.2 1.2c.57.68.86 1.54.82 2.41M9.94 8.2q0-.35-.17-.65a1 1 0 0 0-.63-.5q-.48-.15-1-.17H6.58v2.74h1.6q.52.01 1-.17.41-.13.65-.5.16-.36.15-.74zm.89 6.05q.03-.57-.26-1.06a1.6 1.6 0 0 0-.89-.55 5 5 0 0 0-1.18-.14H6.57v3.58h2q.64 0 1.23-.25.5-.18.78-.64.23-.43.22-.92zM21 4l-.44 10.5h-3.1L17 4zm-.3 13.37a1.69 1.69 0 1 1-1.7-1.63 1.66 1.66 0 0 1 1.7 1.63"/></svg>