<svg xmlns="http://www.w3.org/2000/svg" viewBox="0 0 24 24" width="100%" height="100%"><path d="m21 7.99-.01-.55q0-.6-.1-1.18-.11-.6-.37-1.12a3.8 3.8 0 0 0-2.78-2.03 8 8 0 0 0-1.73-.1L15.37 3H7.44q-.6.02-1.18.11a3.8 3.8 0 0 0-3.15 3.15 8 8 0 0 0-.1 1.73L3 8.63v6.74l.01 1.19q0 .6.1 1.18.11.6.37 1.12a3.8 3.8 0 0 0 2.78 2.03 8 8 0 0 0 1.73.1l.64.01h7.38l.55-.01q.6 0 1.18-.1.6-.11 1.12-.37a3.8 3.8 0 0 0 2.03-2.78q.1-.6.1-1.18V16l.01-.64zm-7.49 7.27q-.09 1.02-.25 2.03c-.08.54-.15.83-.2 1.03-.1.34-.48.63-1.06.63s-.95-.3-1.05-.63a8 8 0 0 1-.21-1.03q-.16-1-.25-2.03a7 7 0 0 1-.03-1.36q.02-.3.24-.52a1.8 1.8 0 0 1 1.3-.47c.56 0 1.03.18 1.3.47q.22.2.24.52c.05.42.02.78-.03 1.36m-3.86-1.4q.09.09.09.2-.02.35 0 .73a.08.08 0 0 1-.13.07 4.24 4.24 0 1 1 4.78 0 .08.08 0 0 1-.13-.07q.02-.38 0-.72 0-.13.09-.21a3.42 3.42 0 1 0-4.7 0m3.82-3.02a1.47 1.47 0 1 1-2.94 0 1.47 1.47 0 0 1 2.94 0m.63 6.5a.08.08 0 0 1-.12-.1l.1-.65q0-.11.12-.17A5.53 5.53 0 0 0 12 5.84h-.04A5.54 5.54 0 0 0 9.8 16.42q.11.05.13.17.03.32.09.65a.08.08 0 0 1-.11.1 6.34 6.34 0 0 1 2.07-12.31 6.34 6.34 0 0 1 2.12 12.3"/></svg>