<svg xmlns="http://www.w3.org/2000/svg" viewBox="0 0 24 24" width="100%" height="100%"><path d="M9.44 15.86h1.12v2.5H9.55a1.1 1.1 0 0 1-.95-.86q-.1-.49.08-.95c.13-.33.41-.59.76-.69m-2.88-3.37c-2 .42-2.74-1.85-2.52-2.9 0 0 .24-2.29 1.85-2.43 1.16.04 2.14.9 2.33 2.05.06.51.34 2.86-1.66 3.28m12.08 3.12a3.1 3.1 0 0 1 .6 3.84c-1.08 2.52-5.07 1.21-5.07 1.21a7 7 0 0 0-3.2-.09q-1.56.33-3.17.23a2.74 2.74 0 0 1-2.57-2.43c-.57-2.48 2-3.83 2.18-4.06q1.37-1.09 2.38-2.53c.86-1.4 3.42-2.52 5.23.24a20 20 0 0 0 3.62 3.59m-6.84 3.76v-6.15h-1.18v1.67H9.24c-.9.13-1.63.77-1.87 1.64q-.18.91.2 1.76c.35.6.95 1 1.63 1.1zm4.84 0V15h-1.3v3.25h-1.22s-.4-.05-.47-.3v-2.89L12.44 15v3.23s.06.81 1.22 1.1zm4.23-8.64c0 .56.24 2.94-1.95 3s-2.28-1.45-2.28-2.52.23-2.72 2-2.72c1.21.03 2.2 1 2.23 2.22zm-5.85-2c-1.47-.19-1.81-1.5-1.66-2.81.12-1.07 1.42-2.71 2.47-2.47a2.64 2.64 0 0 1 1.8 2.77c-.2 1.17-1.13 2.72-2.61 2.53zm-4.75-.17c-1.11 0-2-1.24-2-2.78S9.16 3 10.27 3s2 1.24 2 2.78-.9 2.78-2 2.78"/></svg>