<svg xmlns="http://www.w3.org/2000/svg" viewBox="0 0 24 24" width="100%" height="100%"><path d="M18.76 16.26q-.25 0-.4.19a7 7 0 0 1-4.75 2.5 7.5 7.5 0 0 1-4.14-.81 7 7 0 0 1-2.1-1.71 7 7 0 0 1-1.3-2.36 6.9 6.9 0 0 1 3.42-8.21q1.24-.66 2.63-.8a7.2 7.2 0 0 1 6.25 2.52c.19.21.51.24.73.07a.5.5 0 0 0 .08-.71v-.01a8.2 8.2 0 0 0-7.16-2.89 8.3 8.3 0 0 0-6.33 4.14 7.8 7.8 0 0 0-.62 6.2 8 8 0 0 0 5.38 5.26 8 8 0 0 0 3.27.32 8.3 8.3 0 0 0 5.44-2.86.5.5 0 0 0-.07-.72.5.5 0 0 0-.34-.12m-7.43-7.71a.4.4 0 0 0-.35 0 .3.3 0 0 0-.17.29v6.2q0 .2.17.3t.35 0l5.48-3.1a.33.33 0 0 0 0-.59z"/></svg>