<svg xmlns="http://www.w3.org/2000/svg" viewBox="0 0 24 24" width="100%" height="100%"><path d="M11.81 17.1h1.07q.29-.02.5-.2.15-.21.14-.47s0-1.42.65-1.63 1.51 1.38 2.41 2c.34.26.77.39 1.2.36h2.4s1.26-.07.66-1a8 8 0 0 0-1.79-2c-1.5-1.38-1.3-1.15.51-3.54 1.11-1.6 1.55-2.48 1.44-2.86s-1-.27-1-.27h-2.7a.6.6 0 0 0-.36.06 1 1 0 0 0-.24.29 16 16 0 0 1-1 2.08c-1.2 2-1.69 2.12-1.88 2-.46-.3-.35-1.18-.35-1.8 0-2 .3-2.77-.58-3q-.6-.13-1.23-.1-1.15-.1-2.25.24c-.3.15-.55.48-.4.5.3.02.6.16.8.39q.28.57.27 1.2s.16 2.3-.38 2.6c-.36.2-.86-.2-1.94-2q-.57-.97-1-2a1 1 0 0 0-.23-.3 1 1 0 0 0-.4-.16H3.58s-.39 0-.53.18 0 .45 0 .45 2 4.65 4.3 7a6.2 6.2 0 0 0 4.46 2z"/></svg>