<svg xmlns="http://www.w3.org/2000/svg" viewBox="0 0 24 24" width="100%" height="100%"><path d="M19 3a2 2 0 0 1 2 2v12.5a3.5 3.5 0 0 1-3.3 3.5H5.38A2.5 2.5 0 0 1 3 18.67V12h4V5c0-1.1.9-2 2-2zM7 13H4v5.5c0 .72.5 1.34 1.22 1.47l.14.02.14.01q.2 0 .4-.05l.13-.05.07-.03.07-.03c.46-.23.77-.68.82-1.2L7 18.5zm13-7.75C20 4.56 19.44 4 18.75 4h-9.5C8.56 4 8 4.56 8 5.25v13.47l-.02.08-.02.12-.03.18q-.04.18-.12.35l-.1.21-.06.11-.06.1-.07.1-.02.03h10a2.5 2.5 0 0 0 2.48-2.17l.01-.17.01-.16zM12 11v-1h-2v1zm6 0v-1h-5v1zm0-3V7h-8v1zm-6 9v-1h-2v1zm6 0v-1h-5v1zm-6-3v-1h-2v1zm6 0v-1h-5v1z"/></svg>