<svg xmlns="http://www.w3.org/2000/svg" viewBox="0 0 24 24" width="100%" height="100%"><path d="M10 11.5a5 5 0 1 0-5-5 6 6 0 0 0 1.04 3L1.5 14.04l.75.75 4.54-4.54S7.96 11.5 10 11.5m.04-9A4 4 0 1 1 6 6.5c0-2.2 1.83-4 4.04-4m5.89 2.84a6 6 0 0 1-.1 2.7q.35 1.2.52 2.46H14.5q-.52.58-1.15 1h3.1c.11 1.38.09 2.91 0 4h-5.84c-.08-1-.16-2-.12-3-.18.01-.84.01-1-.01-.02.38.06 2.3.12 3.01H6.3a8 8 0 0 1-.18-3.18L5 13.5c0 6 5 8.5 8.5 8.5 6 0 8.5-4.5 8.5-8.5a8.5 8.5 0 0 0-6.07-8.16m.44 1.21a7.5 7.5 0 0 1 4.04 3.95h-3.06a28 28 0 0 0-.98-3.95m-9.7 9.95h3.05c.17 1.32.9 3.74.99 3.95a7.5 7.5 0 0 1-4.05-3.95m8.38 4.35q-1.52.3-3.02 0c-.6-.98-1.06-2.51-1.3-4.35h5.62a12 12 0 0 1-1.3 4.35m1.32-.4c.1-.24.8-2.53.98-3.95h3.06a7.5 7.5 0 0 1-4.04 3.95m4.4-4.95h-3.31q.15-2 0-4h3.3a7.5 7.5 0 0 1 0 4"/></svg>