<svg xmlns="http://www.w3.org/2000/svg" viewBox="0 0 24 24" width="100%" height="100%"><path d="M12 12V2a10 10 0 0 1 3.83.76zm8.49-.5a8.5 8.5 0 0 0-4.33-6.92l-.39.93a7.5 7.5 0 0 1 3.71 5.99h-2a5.5 5.5 0 0 0-2.49-4.11l-.39.94a4.5 4.5 0 0 1 1.87 3.17h-2.02a2.5 2.5 0 0 0-.65-1.23l-.45 1.08q.15.31.15.65c0 .74-.68 1.5-1.5 1.5-.73 0-1.5-.68-1.5-1.5 0-.41.17-.82.5-1.12V9.71a2.5 2.5 0 0 0-1.45 1.79H7.53A4.5 4.5 0 0 1 11 7.61V6.6a5.5 5.5 0 0 0-4.48 4.91h-2A7.5 7.5 0 0 1 11 4.57V3.56a8.5 8.5 0 0 0-7.5 7.94H2v1h1.51a8.5 8.5 0 0 0 7.99 7.99V22h1v-1.51a8.5 8.5 0 0 0 7.99-7.99H22v-1zm-8.99 7.98a7.5 7.5 0 0 1-6.98-6.98h2a5.5 5.5 0 0 0 4.98 4.98zm0-3a4.5 4.5 0 0 1-3.97-3.98h2.02c.2.98.97 1.75 1.95 1.95zm1-2.03a2.5 2.5 0 0 0 1.95-1.95h2.02a4.5 4.5 0 0 1-3.97 3.97zm0 5.03v-2a5.5 5.5 0 0 0 4.98-4.98h2a7.5 7.5 0 0 1-6.98 6.98"/></svg>