<svg xmlns="http://www.w3.org/2000/svg" viewBox="0 0 24 24" width="100%" height="100%"><path d="M9.22 7.05a9.1 9.1 0 0 1 7.78-.5l-.38.94c-3.25-1.32-5.76-.11-6.96.47l-.7.34 2.04.73-.33.95L7 8.67 8.31 5l.95.34-.74 2.05zM17.7 20c.88 0 1.64-.5 2.01-1.27l1.58-.21c.71-.13.71-1.4.71-1.81 0-2.21-2.44-3.07-4.28-3.52-2.6-.65-4.5-.88-5.6-.67-.9.03-3.25 1.28-3.89 1.81-.44.01-1.64.04-2.56.21-2.14.5-1.63.8-3 1.57-1.57 1.2-.2 3.21 1.94 2.94.84 1.29 2.91 1.23 3.7-.08h7.51c.4.63 1.12 1.03 1.88 1.03m-9.69-2.03a.5.5 0 0 0-.46.3 1.23 1.23 0 0 1-2.23.05.5.5 0 0 0-.44-.28c-.97.11-1.66-.13-1.75-.36-.28-.41-.04-.65.06-.73 1.35-.74.8-.97 2.67-1.43 1.02-.19 2.55-.17 2.54-.18.43-.04.84-.63 2.1-1.2a6 6 0 0 1 1.8-.64c.66-.12 2.12-.1 5.18.67 3.66.99 3.65 1.86 3.44 3.39l-1.33.18c-.28 0-.63.05-.7.37a1.23 1.23 0 0 1-2.32.15.5.5 0 0 0-.45-.3z"/></svg>