<svg xmlns="http://www.w3.org/2000/svg" viewBox="0 0 24 24" width="100%" height="100%"><path d="M15 11v1c-.93 0-1.76.43-2.02.85-.12.2-.08.33-.03.43.13.27.9.5 1.71.69l.25.05.98.22.28.06.14.03.28.06c1.83.42 3.6 1.01 3.9 2.51q.15.81-.38 1.47c-1.44 1.75-6.93 2.61-16.78 2.63H3v-1c12.6 0 15.64-1.42 16.33-2.26q.26-.29.18-.64c-.22-1.13-2.37-1.58-4.1-1.94-1.65-.35-2.95-.63-3.36-1.44q-.34-.7.08-1.4C12.62 11.56 13.8 11 15 11M3 3l9.62 3.8a.5.5 0 0 1 .05.92L4 11.26V19H3zm13 .5 5.1 2.02a.27.27 0 0 1 .04.49L17 7.69V12h-1zM4 4.47v5.65l7.1-2.84zm13 .5V6.6l1.95-.86z"/></svg>