<svg xmlns="http://www.w3.org/2000/svg" viewBox="0 0 24 24" width="100%" height="100%"><path d="M15.73 17a1.5 1.5 0 0 1 1.44 1.89l-.32.99a1.5 1.5 0 0 1-1.52 1.02c-.88-.1-2.33-.4-3.33-.4s-3.01.4-3.01.4a1.5 1.5 0 0 1-1.58-.93l-.33-1A1.5 1.5 0 0 1 8.5 17zM8.5 18a.5.5 0 0 0-.49.6l.32.96c.07.2.26.35.48.35.87-.1 2.19-.41 3.19-.41s3.36.4 3.36.4c.61.08.63-.8.84-1.24a.5.5 0 0 0-.42-.66zm4.73-15a1 1 0 0 1 .98.8l.27 2.22c.62.11 1.1.6 1.22 1.21l.84 8.95a2 2 0 0 0-1.02-.18l-.8-8.57a.5.5 0 0 0-.44-.43H10a.5.5 0 0 0-.48.39L8.7 16a2 2 0 0 0-1.02.18l.82-8.84a1.5 1.5 0 0 1 1.24-1.32L10 3.88a1 1 0 0 1 .92-.88zM11 4l-.25 2h2.73l-.25-2z"/></svg>