<svg xmlns="http://www.w3.org/2000/svg" viewBox="0 0 24 24" width="100%" height="100%"><path d="M19.17 16.75a20 20 0 0 0-4.11-2.11c-.65.89-1.86 1.34-3.06 1.34s-2.41-.45-3.06-1.34a20 20 0 0 0-4.1 2.1C3.91 17.35 3 20.52 3 21h1c0-.2.79-3.03 1.4-3.43q.99-.66 2.1-1.21V19c0 .28.22.5.5.5h8a.5.5 0 0 0 .5-.5v-2.64q1.1.54 2.12 1.22c.6.4 1.37 3.22 1.38 3.42h1c0-.49-.92-3.66-1.83-4.25M15.5 16v2.5h-7V16l-.02-.1.2-.08A5 5 0 0 0 12 16.98c1.3 0 2.5-.43 3.32-1.16l.2.09zm-8-6.76c0 .54.38 1.14.38 1.14s.55 1.95 1.25 3.05A3.1 3.1 0 0 0 12 15c1.32 0 2.17-.47 2.87-1.57s1.25-3.05 1.25-3.05.38-.6.38-1.14V7c0-2.1-1.88-4-4-4h-1a4.13 4.13 0 0 0-3.98 4zM15.07 8l-.52.77c-.04.06-.32.23-.84.23h-3.42c-.52 0-.8-.17-.84-.23L8.93 8zm.2 1.84-.07.13-.04.14c-.14.5-.62 1.98-1.13 2.78C13.5 13.71 12.98 14 12 14s-1.5-.29-2.03-1.1c-.5-.8-.99-2.3-1.13-2.8l-.04-.13-.07-.12a2 2 0 0 1-.23-.61v-.09l.11.17c.34.5 1.09.68 1.68.68h3.42c.59 0 1.34-.18 1.68-.68l.11-.17v.09c0 .14-.12.43-.22.6M8.5 7a3 3 0 0 1 3-3h1a3 3 0 0 1 3 3zm5-1.5a.5.5 0 0 1-.5.5h-2a.5.5 0 1 1 0-1h2c.28 0 .5.22.5.5"/></svg>