<svg xmlns="http://www.w3.org/2000/svg" viewBox="0 0 24 24" width="100%" height="100%"><g fill-rule="evenodd"><path d="M17.1 3.5H6.9a3.4 3.4 0 0 0-3.4 3.4v10.2a3.4 3.4 0 0 0 3.4 3.4h10.2a3.4 3.4 0 0 0 3.4-3.4V6.9a3.4 3.4 0 0 0-3.4-3.4M6.9 19.65a2.55 2.55 0 0 1-2.55-2.55V6.9A2.55 2.55 0 0 1 6.9 4.35h2.55v15.3zm12.75-2.55a2.55 2.55 0 0 1-2.55 2.55h-6.8V4.35h6.8a2.55 2.55 0 0 1 2.55 2.55z"/><path d="M6.05 8.17h1.7c.23 0 .42-.19.42-.42s-.19-.42-.42-.42h-1.7c-.23 0-.42.19-.42.42s.19.42.42.42m1.7.86h-1.7c-.23 0-.42.19-.42.42s.19.42.42.42h1.7c.23 0 .42-.19.42-.42s-.19-.42-.42-.42m0 1.69h-1.7c-.23 0-.42.19-.42.43s.19.42.42.42h1.7c.23 0 .42-.19.42-.42s-.19-.43-.42-.43"/></g></svg>