<svg xmlns="http://www.w3.org/2000/svg" viewBox="0 0 24 24" width="100%" height="100%"><path d="M5.5 12.5h-3a.5.5 0 1 1 0-1h3a.5.5 0 1 1 0 1M22 12a.5.5 0 0 1-.5.5h-3a.5.5 0 1 1 0-1h3c.28 0 .5.22.5.5M7.76 16.95l-2.12 2.12a.5.5 0 1 1-.71-.7l2.12-2.13a.5.5 0 1 1 .7.71M19.07 4.93c.2.2.2.51 0 .7l-2.12 2.13a.5.5 0 1 1-.7-.71l2.11-2.12c.2-.2.52-.2.71 0M12.5 18.5v3a.5.5 0 1 1-1 0v-3a.5.5 0 1 1 1 0M12 2c.28 0 .5.22.5.5v3a.5.5 0 1 1-1 0v-3c0-.28.22-.5.5-.5m4.95 14.24 2.12 2.12a.5.5 0 1 1-.7.71l-2.13-2.12a.5.5 0 1 1 .71-.7M4.93 4.93c.2-.2.51-.2.7 0l2.13 2.12a.5.5 0 1 1-.71.7l-2.12-2.1a.5.5 0 0 1 0-.71M12 8a4 4 0 1 1 0 8 4 4 0 0 1 0-8m0-1a5 5 0 1 0 0 10 5 5 0 0 0 0-10"/></svg>