<svg xmlns="http://www.w3.org/2000/svg" viewBox="0 0 24 24" width="100%" height="100%"><path d="M12.04 9c1.96 0 6.03 0 7.53.4v.45l.45.25c1.16.7 1.21.75 1.86 1.15.15.5.1 2-.15 2.4-.15.1-.6.3-1 .4l-.6.15-.16.6c-.1.7-.7 1.2-1.4 1.2-.6 0-1.16-.35-1.36-.9l-.3-.6H7.22l-.25.6c-.25.55-.8.9-1.35.9a1.5 1.5 0 0 1-1.4-.95l-.26-.65h-.7c-.7 0-1.16-.3-1.26-.45 0-.95 0-1.2.3-1.65.3-.4 1.26-.85 6.28-1.3l.3-.05.25-.2.15-.1C11.14 9.2 11.8 9 12.04 9m0-1C11 8 9.18 9.5 8.53 10c-5.52.5-6.53 1.05-7.03 1.75S1 13 1 14c0 .75 1 1.45 2.26 1.45.35.9 1.25 1.55 2.3 1.55 1.01 0 1.92-.6 2.32-1.5h8.38a2.53 2.53 0 0 0 4.77-.5s1.25-.3 1.56-.75c.5-.75.6-3.35 0-3.75q-.76-.5-2.01-1.25s-.05-.6-.5-.75c-1.41-.45-5.02-.5-8.04-.5"/></svg>