<svg xmlns="http://www.w3.org/2000/svg" viewBox="0 0 24 24" width="100%" height="100%"><path d="M14 3h-4a3 3 0 0 0-3 3v12a3 3 0 0 0 3 3h4a3 3 0 0 0 3-3V6a3 3 0 0 0-3-3m-4 17a2 2 0 0 1-2-2l1.84.61.32-.95L8 16.95v-2.09l1.84.61.32-.94L8 13.8v-1.95l1.84.61.32-.94L8 10.8V8.86l1.84.61.32-.94L8 7.8V6l.01-.13 1.83.6.32-.94-1.84-.61A2 2 0 0 1 10 4h1.5v16zm6-9.2-2.16.73.32.94 1.84-.61v1.95l-2.16.72.32.94 1.84-.6v2.08l-2.16.71.32.95L16 18a2 2 0 0 1-2 2h-1.5V4H14a2 2 0 0 1 1.68.91l-1.84.62.32.94 1.83-.6L16 6v1.8l-2.16.73.32.94L16 8.86z"/></svg>