<svg xmlns="http://www.w3.org/2000/svg" viewBox="0 0 24 24" width="100%" height="100%"><path d="M12 3.5c.11 0 .3.18.3.4l.05 4.8a1 1 0 0 0 .31.71l3.57 3.41c.73.8.97 2 .6 3.07l-1.72 4.06-.02.06q-.09.24-.09.49h-4.4l-.2-1.98a1 1 0 0 0-.26-.58l-.93-1a2 2 0 0 1-.46-.92l-1.7-5.18h.03q.3 0 .56.19.38.27.48.78l.03.12.45 1.44a1 1 0 0 0 1.95-.21l.82-9.36c.04-.17.15-.3.29-.3zm0-1h-.34c-.65 0-1.18.5-1.28 1.18l-.82 9.4-.46-1.45a2.2 2.2 0 0 0-.88-1.42 2 2 0 0 0-1.6-.32q-.32.07-.5.37a1 1 0 0 0-.1.65l1.78 5.42q.18.74.68 1.3l.93 1 .28 2.87H16v-.97l.03-.2 1.74-4.09c.5-1.42.17-3.04-.83-4.12L13.35 8.7l-.06-4.8c0-.74-.6-1.39-1.29-1.39"/></svg>