<svg xmlns="http://www.w3.org/2000/svg" viewBox="0 0 24 24" width="100%" height="100%"><path d="M16.5 9.9h1v5.6h-1zm0-1.2h1v-1h-1zM22 4v16.9s-.5.1-1 .1c-2.3 0-4.2-1.1-6.4-1.1-.8 0-1.9.4-2.6 1-.7-.6-1.8-1-2.6-1C7.2 19.9 5.3 21 3 21c-.5 0-1-.1-1-.1V4s.5.1 1 .1C5.3 4.1 7.2 3 9.4 3c.8 0 1.9.4 2.6 1 .7-.6 1.8-1 2.6-1 2.2 0 4.1 1.1 6.4 1.1.5 0 1-.1 1-.1M9.4 18.9c.6 0 1.4.2 2.1.5V4.9S10.8 4 9.4 4C7.4 4 5.5 5.1 3 5.1V20c1.9 0 3.7-1.1 6.4-1.1M21 5.1c-2.9 0-4.9-1.1-6.4-1.1-1.2 0-2.1.9-2.1.9v14.5c.7-.3 1.5-.5 2.1-.5 2 0 3.9 1.1 6.4 1.1z"/></svg>