<svg xmlns="http://www.w3.org/2000/svg" viewBox="0 0 24 24" width="100%" height="100%"><path d="m13.99 12.15.9-.9A3 3 0 0 1 15 12a3 3 0 0 1-3 3q-.38-.01-.75-.11l.9-.9a2 2 0 0 0 1.84-1.84M10 11.87l-.92.92a2.97 2.97 0 0 1 3.7-3.7l-.91.91A1.96 1.96 0 0 0 10 11.87M22 12s-3.04 6-10 6q-1.72 0-3.36-.51l.82-.82Q10.7 17 12 17a10.6 10.6 0 0 0 8.86-5 11 11 0 0 0-3.34-3.39l.73-.73C20.05 9.08 22 12 22 12M2 12s3-6 10-6q1.72 0 3.36.51l-.8.8A10 10 0 0 0 12 7a10.6 10.6 0 0 0-8.87 5 11 11 0 0 0 3.39 3.35l-.72.72C2.87 14.16 2 12 2 12M21.28 2 2 21.28l.72.72L22 2.72z"/></svg>