<svg xmlns="http://www.w3.org/2000/svg" viewBox="0 0 24 24" width="100%" height="100%"><path d="M19.25 12a3.27 3.27 0 0 1 3.01 4.46A1.99 1.99 0 0 1 21.1 20h-8.6c-2.33 0-2.75-3.36-.5-3.93-.12-2.17 2.66-3.4 4.19-1.9.43-1.23 1.26-2.17 3.06-2.17m-3.74 2.9c-.87-.87-2.47-.22-2.5 1.01l-.01.93-.75.2c-1.09.25-.94 1.9.18 1.96h8.62c1.21-.2 1.3-1.4.01-2.23l.28-.68A2.26 2.26 0 0 0 19.25 13c-1.14 0-1.85.5-1.98 1.4-.13.92-1.25 1.18-1.76.5M15 11a.5.5 0 0 0-.5-.5h-2a.5.5 0 1 0 0 1h2a.5.5 0 0 0 .5-.5M4 11a.5.5 0 0 0-.5-.5h-2a.5.5 0 1 0 0 1h2A.5.5 0 0 0 4 11m8.95-4.95a.5.5 0 0 0-.7 0l-1.42 1.41a.5.5 0 1 0 .7.71l1.42-1.41a.5.5 0 0 0 0-.71m-7.78 7.78a.5.5 0 0 0-.7 0l-1.42 1.41a.5.5 0 1 0 .7.71l1.42-1.41a.5.5 0 0 0 0-.71M8 4a.5.5 0 0 0-.5.5v2a.5.5 0 1 0 1 0v-2A.5.5 0 0 0 8 4m0 11a.5.5 0 0 0-.5.5v2a.5.5 0 1 0 1 0v-2A.5.5 0 0 0 8 15M3.05 6.05a.5.5 0 0 0 0 .7l1.41 1.42a.5.5 0 1 0 .71-.7L3.76 6.04a.5.5 0 0 0-.71 0M8 8.75a2.25 2.25 0 1 1 0 4.5 2.25 2.25 0 0 1 0-4.5M8 8a3 3 0 1 0 0 6 3 3 0 0 0 0-6"/></svg>