<svg xmlns="http://www.w3.org/2000/svg" viewBox="0 0 24 24" width="100%" height="100%"><path d="M17.6 11.78c3.12.11 5.37-3.53 3.93-6.27l-.14-.14-3.1 3.1h-1.2l-.6-.6v-1.2l3.1-3.1-.13-.14C15.8 1.6 11.79 5.64 13.6 9.28l-1.63 1.62-1.62-1.62c1.81-3.64-2.2-7.67-5.85-5.85l-.14.14 3.1 3.1v1.2l-.6.6h-1.2l-3.1-3.1-.14.14C.6 9.14 4.61 13.17 8.27 11.35l1.63 1.63-4.48 4.48c-1.34 1.4.68 3.42 2.07 2.08l4.48-4.48 4.48 4.48c1.4 1.34 3.41-.69 2.08-2.08l-4.48-4.48 1.63-1.63q.91.44 1.9.43M6.8 18.83c-.45.44-1.08-.23-.67-.67l4.49-4.48.66.67zm11.03-.67c.18.18.18.48 0 .67-.25.2-.4.2-.66 0l-8.69-8.7-.64.3C5.62 11.6 2.76 9.69 3 7.2l2.26 2.26h2.02l1.18-1.18V6.24L6.2 4h.21c2.43-.07 4.14 2.7 3.04 4.86l-.3.64 8.7 8.7zm-4.48-5.89-.67-.67 2.13-2.12s-1.58-2.59.35-4.51a3.4 3.4 0 0 1 2.38-1h.21L15.5 6.24v2.03l1.17 1.18h2.03l2.26-2.26c.05.95-.3 1.9-.98 2.6-1.85 1.87-4.5.35-4.5.35z"/></svg>