<svg xmlns="http://www.w3.org/2000/svg" viewBox="0 0 24 24" width="100%" height="100%"><path d="m16.31 4 .3.01-1.8 1.81a1.4 1.4 0 0 0 0 2.02l1.35 1.36a1.4 1.4 0 0 0 2.01 0L20 7.37l.01.3a3.7 3.7 0 0 1-4.73 3.54l-.57-.17-.43.42-8.17 8.17a1.23 1.23 0 0 1-1.74-1.75l8.17-8.16.42-.43-.17-.57q-.15-.51-.15-1.04A3.7 3.7 0 0 1 16.3 4m0-1a4.7 4.7 0 0 0-4.49 6.02l-8.17 8.17A2.24 2.24 0 0 0 5.23 21c.6 0 1.17-.24 1.58-.65l8.17-8.17q.65.2 1.33.2a4.7 4.7 0 0 0 4.4-6.28l-.22-.64-3.02 3.03a.43.43 0 0 1-.6 0L15.5 7.14a.4.4 0 0 1 0-.6l3.03-3.03-.64-.23A5 5 0 0 0 16.31 3"/></svg>