<svg xmlns="http://www.w3.org/2000/svg" viewBox="0 0 512 512" width="100%" height="100%"><circle cx="256" cy="256" r="256" fill="#fcfcfc"/><path fill="#a2001d" d="m105.739 237.449-27.826-50.483 27.826-49.691 27.826 49.691zm-55.652 0-27.826-50.483 27.826-49.691 27.826 49.691zm55.652 137.276-27.826-50.483 27.826-49.691 27.826 49.691zm-55.652 0-27.826-50.483 27.826-49.691 27.826 49.691zm83.478-325.033-7.878-14.068a256.7 256.7 0 0 0-39.594 28.909l19.646 35.641zm-27.826 362.134-19.854 35.456a256.7 256.7 0 0 0 39.568 28.955l8.113-14.719z"/><path fill="#6da544" d="M155.826 322.783v168.863C186.595 504.743 220.448 512 256 512c110.071 0 203.906-69.472 240.077-166.957z"/><path fill="#a2001d" d="M496.077 345.043C506.368 317.31 512 287.314 512 256 512 114.616 397.384 0 256 0c-35.549 0-69.405 7.253-100.174 20.348v324.696h340.251z"/></svg>