<svg xmlns="http://www.w3.org/2000/svg" width="24" height="24" fill="none" viewBox="0 0 24 24"><g clip-path="url(#a)"><path fill="#002b7f" d="M22.395 18A12 12 0 0 1 12 24c-4.442 0-8.32-2.413-10.395-6zm1.227-3H.378A12 12 0 0 1 0 12C0 5.373 5.373 0 12 0s12 5.373 12 12c0 1.036-.131 2.041-.378 3"/><path fill="#f9e814" d="M1.605 18a12 12 0 0 1-1.227-3h23.244a12 12 0 0 1-1.227 3z"/><path fill="#f0f0f0" d="m10.03 7 .431 1.548H12l-1.23.904.492 1.548-1.231-.903L8.738 11l.493-1.548L8 8.548h1.538zM6.523 4l.323 1.161H8l-.923.678L7.447 7l-.924-.677-.97.677.37-1.161L5 5.16h1.154z"/></g><defs><clipPath id="a"><path fill="#fff" d="M0 0h24v24H0z"/></clipPath></defs></svg>